<?xml version="1.0" standalone="no"?>
<!DOCTYPE svg PUBLIC "-//W3C//DTD SVG 1.0//EN"
"http://www.w3.org/TR/2001/REC-SVG-20010904/DTD/svg10.dtd">

<svg width="858px" height="820px" viewBox="0 0 858 820" version="1.0" xmlns="http://www.w3.org/2000/svg">

<g transform="translate(0,820)">
<g transform="scale(1,-1)">
<path d=" M 10.0 10.0 L 848.2 10.0 L 848.2 810.0 L 10.0 810.0 L 10.0 10.0 M 412.0 278.7 L 407.0 275.9 L 404.2 273.1 L 385.9 262.1 L 367.0 246.7 L 352.5 231.3 L 337.4 207.0 L 325.7 182.1 L 307.8 157.8 L 291.7 141.2 L 279.5 136.3 M 311.4 93.4 L 315.3 97.8 L 318.6 103.4 L 326.5 120.0 L 331.5 133.8 L 341.0 152.6 L 350.0 166.4 L 374.5 195.7 L 391.2 212.7 L 408.4 226.5 L 422.3 239.2 L 438.0 250.6 M 279.5 136.3 L 311.4 93.4 M 438.0 250.6 L 412.0 278.7 M 666.9 297.8 L 624.1 258.6 L 596.7 214.4 L 585.5 192.3 L 569.9 170.2 L 559.4 162.5 L 539.4 152.6 L 528.3 146.0 M 572.8 84.2 L 574.5 88.7 L 592.4 119.6 L 601.9 132.3 L 639.7 169.3 L 655.3 185.8 L 674.3 209.0 L 693.8 231.1 L 666.9 297.8 M 528.3 146.0 L 566.1 93.7 M 566.1 93.7 L 572.8 84.2 M 380.6 318.7 L 378.4 315.4 L 365.6 301.6 L 354.4 291.7 L 339.4 279.6 L 280.5 236.1 L 248.8 208.0 L 229.9 194.8 M 229.9 194.8 L 279.5 136.3 M 412.0 278.7 L 380.6 318.7 M 179.6 244.8 L 229.9 194.8 M 342.2 402.7 L 328.2 369.5 L 304.1 316.9 L 293.5 299.8 L 275.7 278.3 L 268.5 272.2 L 256.2 263.4 L 229.0 253.6 L 220.7 249.7 L 179.6 244.8 M 380.6 318.7 L 342.2 402.7 M 666.9 297.8 L 651.6 330.0 M 636.9 380.0 L 625.1 355.7 L 611.7 331.9 L 595.0 307.6 L 579.4 287.7 L 562.1 270.6 L 531.0 246.9 L 517.6 238.1 L 504.8 226.6 L 496.5 217.2 L 492.0 210.0 L 488.6 202.2 M 488.6 202.2 L 506.0 176.9 M 651.6 330.0 L 636.9 380.0 M 506.0 176.9 L 528.3 146.0 M 848.2 800.9 L 843.6 792.7 L 830.9 767.1 L 801.0 750.1 L 732.8 715.9 L 688.0 688.2 L 656.0 664.8 L 630.4 628.5 L 609.1 594.4 L 594.2 573.1 L 578.1 555.7 M 578.1 555.7 L 588.2 516.1 M 588.2 516.1 L 608.2 532.6 L 637.2 561.9 L 668.3 591.1 L 704.5 620.8 L 746.2 651.1 L 785.1 681.9 L 848.0 736.5 L 848.2 736.7 M 666.9 297.8 L 693.1 321.5 L 729.3 358.4 L 775.6 421.4 L 821.3 478.8 L 848.2 501.9 M 848.2 566.9 L 823.8 543.7 L 802.1 521.1 L 755.3 469.2 L 734.7 444.4 L 711.3 419.0 L 689.0 386.9 L 668.3 351.5 L 651.6 330.0 M 460.0 229.6 L 488.6 202.2 M 612.8 448.3 L 589.5 444.0 L 577.9 439.1 L 566.7 425.8 L 560.0 405.9 L 558.8 385.4 L 562.5 362.1 L 562.5 347.7 L 558.5 328.3 L 542.3 303.4 L 531.7 292.4 L 517.3 281.4 L 487.8 264.4 L 477.8 257.7 L 468.4 247.8 L 462.8 240.1 L 460.5 236.2 L 460.0 229.6 M 636.9 380.0 L 612.8 448.3 M 460.0 229.6 L 418.2 191.0 L 400.4 171.1 L 382.0 147.4 L 368.1 127.5 L 337.9 68.3 L 311.4 93.4 M 311.4 93.4 L 283.6 67.5 L 259.0 38.8 L 241.7 12.3 L 240.1 10.0 M 292.0 10.0 L 307.7 28.0 L 319.4 39.6 L 328.3 47.3 L 333.9 50.6 L 346.5 60.8 L 363.2 42.1 M 363.2 42.1 L 369.4 63.2 L 382.8 89.7 L 396.8 107.4 L 414.6 122.8 L 460.7 147.5 L 472.9 155.8 L 487.3 164.0 L 506.0 176.9 M 756.7 63.8 L 763.1 10.0 M 747.5 106.6 L 756.7 63.8 M 848.2 289.1 L 837.5 280.2 L 774.6 226.2 L 756.8 215.8 L 729.6 202.6 L 714.1 193.8 L 710.2 190.0 L 724.5 161.0 L 747.5 106.6 M 607.5 37.5 L 587.5 22.6 L 573.2 10.0 M 626.4 10.0 L 607.5 37.5 M 756.7 63.8 L 744.5 56.7 L 732.2 46.8 L 714.9 20.8 L 710.0 10.0 M 747.5 106.6 L 729.2 101.7 L 717.5 96.8 L 704.7 88.0 L 698.0 80.2 L 690.8 67.0 L 684.0 47.6 L 674.5 15.5 L 671.0 10.0 M 460.0 229.6 L 438.0 250.6 M 279.5 136.3 L 254.5 122.6 L 247.3 122.1 L 233.9 118.8 L 217.9 113.9 L 202.3 102.3 L 189.5 88.6 L 173.3 63.1 L 157.1 29.9 L 145.8 10.0 M 229.9 194.8 L 196.0 175.0 L 178.7 157.3 L 158.1 133.6 L 140.3 114.3 L 125.2 96.7 L 110.2 77.9 L 100.2 61.9 L 85.6 29.8 L 77.8 10.0 M 339.8 10.0 L 345.4 18.9 L 363.2 42.1 M 78.1 810.0 L 182.2 735.3 L 188.5 727.0 L 244.9 670.6 L 291.0 704.6 L 317.2 727.7 L 340.0 740.9 L 378.8 749.0 L 410.9 749.4 L 447.5 745.3 L 469.0 740.2 L 480.1 736.8 L 446.4 810.0 M 21.5 484.8 L 36.1 530.7 L 27.8 560.0 L 10.0 571.8 M 10.0 475.5 L 21.5 484.8 M 179.6 244.8 L 153.7 228.9 L 126.2 205.9 L 95.9 175.1 L 66.2 137.2 L 47.0 107.0 L 29.3 77.9 L 21.6 62.5 L 10.0 35.5 M 760.1 810.0 L 749.8 803.4 L 705.1 771.4 L 656.0 735.2 L 570.7 692.5 L 516.1 678.8 M 516.1 678.8 L 577.3 558.9 L 578.1 555.7 M 684.1 810.0 L 649.6 782.1 L 592.0 743.6 L 532.3 726.6 L 483.1 732.5 L 503.2 704.0 L 516.1 678.8 M 342.2 402.7 L 312.9 523.7 L 304.0 514.3 L 295.6 499.4 L 290.0 482.2 L 281.4 436.8 L 274.0 383.1 L 264.4 350.4 L 249.9 327.7 L 234.3 311.8 L 214.3 300.2 L 189.3 287.6 L 145.0 277.9 L 179.6 244.8 M 612.8 448.3 L 588.2 516.1 M 572.8 84.2 L 586.0 64.8 L 579.4 59.2 L 577.7 58.7 L 563.2 39.4 L 548.7 27.8 L 535.4 19.0 L 519.3 10.2 L 519.0 10.0 M 475.6 20.4 L 489.5 33.1 L 503.9 41.4 L 517.8 48.5 L 531.7 57.8 L 553.4 76.0 L 563.4 87.6 L 566.1 93.7 M 467.0 10.0 L 475.6 20.4 M 528.3 146.0 L 522.1 128.3 L 511.5 111.2 L 500.9 99.1 L 485.9 87.5 L 460.9 79.8 L 447.0 72.7 L 432.0 61.7 L 421.4 50.1 L 410.3 34.1 L 401.9 14.2 L 399.2 10.0 M 398.8 10.0 L 363.2 42.1"
 style="fill:none; stroke:#b3b3da; stroke-opacity:1.0; stroke-width:0.8; " />

<path d=" M 315.3 97.8 L 318.6 103.4 L 326.5 120.0 L 331.5 133.8 L 341.0 152.6 L 350.0 166.4 L 374.5 195.7 L 391.2 212.7 L 408.4 226.5 L 422.3 239.2 L 438.0 250.6 L 412.0 278.7 L 407.0 275.9 L 404.2 273.1 L 385.9 262.1 L 367.0 246.7 L 352.5 231.3 L 337.4 207.0 L 325.7 182.1 L 307.8 157.8 L 291.7 141.2 L 279.5 136.3 L 311.4 93.4 L 315.3 97.8 z M 574.5 88.7 L 592.4 119.6 L 601.9 132.3 L 639.7 169.3 L 655.3 185.8 L 674.3 209.0 L 693.8 231.1 L 666.9 297.8 L 624.1 258.6 L 596.7 214.4 L 585.5 192.3 L 569.9 170.2 L 559.4 162.5 L 539.4 152.6 L 528.3 146.0 L 566.1 93.7 L 572.8 84.2 L 574.5 88.7 z M 291.7 141.2 L 307.8 157.8 L 325.7 182.1 L 337.4 207.0 L 352.5 231.3 L 367.0 246.7 L 385.9 262.1 L 404.2 273.1 L 407.0 275.9 L 412.0 278.7 L 380.6 318.7 L 378.4 315.4 L 365.6 301.6 L 354.4 291.7 L 339.4 279.6 L 280.5 236.1 L 248.8 208.0 L 229.9 194.8 L 279.5 136.3 L 291.7 141.2 z M 248.8 208.0 L 280.5 236.1 L 339.4 279.6 L 354.4 291.7 L 365.6 301.6 L 378.4 315.4 L 380.6 318.7 L 342.2 402.7 L 328.2 369.5 L 304.1 316.9 L 293.5 299.8 L 275.7 278.3 L 268.5 272.2 L 256.2 263.4 L 229.0 253.6 L 220.7 249.7 L 179.6 244.8 L 229.9 194.8 L 248.8 208.0 z M 539.4 152.6 L 559.4 162.5 L 569.9 170.2 L 585.5 192.3 L 596.7 214.4 L 624.1 258.6 L 666.9 297.8 L 651.6 330.0 L 636.9 380.0 L 625.1 355.7 L 611.7 331.9 L 595.0 307.6 L 579.4 287.7 L 562.1 270.6 L 531.0 246.9 L 517.6 238.1 L 504.8 226.6 L 496.5 217.2 L 492.0 210.0 L 488.6 202.2 L 506.0 176.9 L 528.3 146.0 L 539.4 152.6 z M 608.2 532.6 L 637.2 561.9 L 668.3 591.1 L 704.5 620.8 L 746.2 651.1 L 785.1 681.9 L 848.0 736.5 L 848.2 736.7 L 848.2 800.9 L 843.6 792.7 L 830.9 767.1 L 801.0 750.1 L 732.8 715.9 L 688.0 688.2 L 656.0 664.8 L 630.4 628.5 L 609.1 594.4 L 594.2 573.1 L 578.1 555.7 L 588.2 516.1 L 608.2 532.6 z M 693.1 321.5 L 729.3 358.4 L 775.6 421.4 L 821.3 478.8 L 848.2 501.9 L 848.2 566.9 L 823.8 543.7 L 802.1 521.1 L 755.3 469.2 L 734.7 444.4 L 711.3 419.0 L 689.0 386.9 L 668.3 351.5 L 651.6 330.0 L 666.9 297.8 L 693.1 321.5 z M 492.0 210.0 L 496.5 217.2 L 504.8 226.6 L 517.6 238.1 L 531.0 246.9 L 562.1 270.6 L 579.4 287.7 L 595.0 307.6 L 611.7 331.9 L 625.1 355.7 L 636.9 380.0 L 612.8 448.3 L 589.5 444.0 L 577.9 439.1 L 566.7 425.8 L 560.0 405.9 L 558.8 385.4 L 562.5 362.1 L 562.5 347.7 L 558.5 328.3 L 542.3 303.4 L 531.7 292.4 L 517.3 281.4 L 487.8 264.4 L 477.8 257.7 L 468.4 247.8 L 462.8 240.1 L 460.5 236.2 L 460.0 229.6 L 488.6 202.2 L 492.0 210.0 z M 307.7 28.0 L 319.4 39.6 L 328.3 47.3 L 333.9 50.6 L 346.5 60.8 L 363.2 42.1 L 369.4 63.2 L 382.8 89.7 L 396.8 107.4 L 414.6 122.8 L 460.7 147.5 L 472.9 155.8 L 487.3 164.0 L 506.0 176.9 L 488.6 202.2 L 460.0 229.6 L 418.2 191.0 L 400.4 171.1 L 382.0 147.4 L 368.1 127.5 L 337.9 68.3 L 311.4 93.4 L 283.6 67.5 L 259.0 38.8 L 241.7 12.3 L 240.1 10.0 L 292.0 10.0 L 307.7 28.0 z M 848.2 289.1 L 837.5 280.2 L 774.6 226.2 L 756.8 215.8 L 729.6 202.6 L 714.1 193.8 L 710.2 190.0 L 724.5 161.0 L 747.5 106.6 L 756.7 63.8 L 763.1 10.0 L 848.2 10.0 L 848.2 289.1 z M 607.5 37.5 L 587.5 22.6 L 573.2 10.0 L 626.4 10.0 L 607.5 37.5 z M 756.7 63.8 L 744.5 56.7 L 732.2 46.8 L 714.9 20.8 L 710.0 10.0 L 763.1 10.0 L 756.7 63.8 z M 714.9 20.8 L 732.2 46.8 L 744.5 56.7 L 756.7 63.8 L 747.5 106.6 L 729.2 101.7 L 717.5 96.8 L 704.7 88.0 L 698.0 80.2 L 690.8 67.0 L 684.0 47.6 L 674.5 15.5 L 671.0 10.0 L 710.0 10.0 L 714.9 20.8 z M 368.1 127.5 L 382.0 147.4 L 400.4 171.1 L 418.2 191.0 L 460.0 229.6 L 438.0 250.6 L 422.3 239.2 L 408.4 226.5 L 391.2 212.7 L 374.5 195.7 L 350.0 166.4 L 341.0 152.6 L 331.5 133.8 L 326.5 120.0 L 318.6 103.4 L 315.3 97.8 L 311.4 93.4 L 337.9 68.3 L 368.1 127.5 z M 241.7 12.3 L 259.0 38.8 L 283.6 67.5 L 311.4 93.4 L 279.5 136.3 L 254.5 122.6 L 247.3 122.1 L 233.9 118.8 L 217.9 113.9 L 202.3 102.3 L 189.5 88.6 L 173.3 63.1 L 157.1 29.9 L 145.8 10.0 L 240.1 10.0 L 241.7 12.3 z M 157.1 29.9 L 173.3 63.1 L 189.5 88.6 L 202.3 102.3 L 217.9 113.9 L 233.9 118.8 L 247.3 122.1 L 254.5 122.6 L 279.5 136.3 L 229.9 194.8 L 196.0 175.0 L 178.7 157.3 L 158.1 133.6 L 140.3 114.3 L 125.2 96.7 L 110.2 77.9 L 100.2 61.9 L 85.6 29.8 L 77.8 10.0 L 145.8 10.0 L 157.1 29.9 z M 345.4 18.9 L 363.2 42.1 L 346.5 60.8 L 333.9 50.6 L 328.3 47.3 L 319.4 39.6 L 307.7 28.0 L 292.0 10.0 L 339.8 10.0 L 345.4 18.9 z M 291.0 704.6 L 317.2 727.7 L 340.0 740.9 L 378.8 749.0 L 410.9 749.4 L 447.5 745.3 L 469.0 740.2 L 480.1 736.8 L 446.4 810.0 L 78.1 810.0 L 182.2 735.3 L 188.5 727.0 L 244.9 670.6 L 291.0 704.6 z M 21.5 484.8 L 36.1 530.7 L 27.8 560.0 L 10.0 571.8 L 10.0 475.5 L 21.5 484.8 z M 85.6 29.8 L 100.2 61.9 L 110.2 77.9 L 125.2 96.7 L 140.3 114.3 L 158.1 133.6 L 178.7 157.3 L 196.0 175.0 L 229.9 194.8 L 179.6 244.8 L 153.7 228.9 L 126.2 205.9 L 95.9 175.1 L 66.2 137.2 L 47.0 107.0 L 29.3 77.9 L 21.6 62.5 L 10.0 35.5 L 10.0 10.0 L 77.8 10.0 L 85.6 29.8 z M 594.2 573.1 L 609.1 594.4 L 630.4 628.5 L 656.0 664.8 L 688.0 688.2 L 732.8 715.9 L 801.0 750.1 L 830.9 767.1 L 843.6 792.7 L 848.2 800.9 L 848.2 810.0 L 760.1 810.0 L 749.8 803.4 L 705.1 771.4 L 656.0 735.2 L 570.7 692.5 L 516.1 678.8 L 577.3 558.9 L 578.1 555.7 L 594.2 573.1 z M 570.7 692.5 L 656.0 735.2 L 705.1 771.4 L 749.8 803.4 L 760.1 810.0 L 684.1 810.0 L 649.6 782.1 L 592.0 743.6 L 532.3 726.6 L 483.1 732.5 L 503.2 704.0 L 516.1 678.8 L 570.7 692.5 z M 220.7 249.7 L 229.0 253.6 L 256.2 263.4 L 268.5 272.2 L 275.7 278.3 L 293.5 299.8 L 304.1 316.9 L 328.2 369.5 L 342.2 402.7 L 312.9 523.7 L 304.0 514.3 L 295.6 499.4 L 290.0 482.2 L 281.4 436.8 L 274.0 383.1 L 264.4 350.4 L 249.9 327.7 L 234.3 311.8 L 214.3 300.2 L 189.3 287.6 L 145.0 277.9 L 179.6 244.8 L 220.7 249.7 z M 21.6 62.5 L 29.3 77.9 L 47.0 107.0 L 66.2 137.2 L 95.9 175.1 L 126.2 205.9 L 153.7 228.9 L 179.6 244.8 L 145.0 277.9 L 189.3 287.6 L 214.3 300.2 L 234.3 311.8 L 249.9 327.7 L 264.4 350.4 L 274.0 383.1 L 281.4 436.8 L 290.0 482.2 L 295.6 499.4 L 304.0 514.3 L 312.9 523.7 L 342.2 402.7 L 380.6 318.7 L 412.0 278.7 L 438.0 250.6 L 460.0 229.6 L 460.5 236.2 L 462.8 240.1 L 468.4 247.8 L 477.8 257.7 L 487.8 264.4 L 517.3 281.4 L 531.7 292.4 L 542.3 303.4 L 558.5 328.3 L 562.5 347.7 L 562.5 362.1 L 558.8 385.4 L 560.0 405.9 L 566.7 425.8 L 577.9 439.1 L 589.5 444.0 L 612.8 448.3 L 588.2 516.1 L 578.1 555.7 L 577.3 558.9 L 516.1 678.8 L 503.2 704.0 L 483.1 732.5 L 532.3 726.6 L 592.0 743.6 L 649.6 782.1 L 684.1 810.0 L 446.4 810.0 L 480.1 736.8 L 469.0 740.2 L 447.5 745.3 L 410.9 749.4 L 378.8 749.0 L 340.0 740.9 L 317.2 727.7 L 291.0 704.6 L 244.9 670.6 L 188.5 727.0 L 182.2 735.3 L 78.1 810.0 L 10.0 810.0 L 10.0 571.8 L 27.8 560.0 L 36.1 530.7 L 21.5 484.8 L 10.0 475.5 L 10.0 35.5 L 21.6 62.5 z M 668.3 351.5 L 689.0 386.9 L 711.3 419.0 L 734.7 444.4 L 755.3 469.2 L 802.1 521.1 L 823.8 543.7 L 848.2 566.9 L 848.2 736.7 L 848.0 736.5 L 785.1 681.9 L 746.2 651.1 L 704.5 620.8 L 668.3 591.1 L 637.2 561.9 L 608.2 532.6 L 588.2 516.1 L 612.8 448.3 L 636.9 380.0 L 651.6 330.0 L 668.3 351.5 z M 587.5 22.6 L 607.5 37.5 L 626.4 10.0 L 671.0 10.0 L 674.5 15.5 L 684.0 47.6 L 690.8 67.0 L 698.0 80.2 L 704.7 88.0 L 717.5 96.8 L 729.2 101.7 L 747.5 106.6 L 724.5 161.0 L 710.2 190.0 L 714.1 193.8 L 729.6 202.6 L 756.8 215.8 L 774.6 226.2 L 837.5 280.2 L 848.2 289.1 L 848.2 501.9 L 821.3 478.8 L 775.6 421.4 L 729.3 358.4 L 693.1 321.5 L 666.9 297.8 L 693.8 231.1 L 674.3 209.0 L 655.3 185.8 L 639.7 169.3 L 601.9 132.3 L 592.4 119.6 L 574.5 88.7 L 572.8 84.2 L 586.0 64.8 L 579.4 59.2 L 577.7 58.7 L 563.2 39.4 L 548.7 27.8 L 535.4 19.0 L 519.3 10.2 L 519.0 10.0 L 573.2 10.0 L 587.5 22.6 z M 475.6 20.4 L 489.5 33.1 L 503.9 41.4 L 517.8 48.5 L 531.7 57.8 L 553.4 76.0 L 563.4 87.6 L 566.1 93.7 L 528.3 146.0 L 522.1 128.3 L 511.5 111.2 L 500.9 99.1 L 485.9 87.5 L 460.9 79.8 L 447.0 72.7 L 432.0 61.7 L 421.4 50.1 L 410.3 34.1 L 401.9 14.2 L 399.2 10.0 L 467.0 10.0 L 475.6 20.4 z M 363.2 42.1 L 345.4 18.9 L 339.8 10.0 L 398.8 10.0 L 363.2 42.1 z M 519.3 10.2 L 535.4 19.0 L 548.7 27.8 L 563.2 39.4 L 577.7 58.7 L 579.4 59.2 L 586.0 64.8 L 572.8 84.2 L 566.1 93.7 L 563.4 87.6 L 553.4 76.0 L 531.7 57.8 L 517.8 48.5 L 503.9 41.4 L 489.5 33.1 L 475.6 20.4 L 467.0 10.0 L 519.0 10.0 L 519.3 10.2 z M 401.9 14.2 L 410.3 34.1 L 421.4 50.1 L 432.0 61.7 L 447.0 72.7 L 460.9 79.8 L 485.9 87.5 L 500.9 99.1 L 511.5 111.2 L 522.1 128.3 L 528.3 146.0 L 506.0 176.9 L 487.3 164.0 L 472.9 155.8 L 460.7 147.5 L 414.6 122.8 L 396.8 107.4 L 382.8 89.7 L 369.4 63.2 L 363.2 42.1 L 398.8 10.0 L 399.2 10.0 L 401.9 14.2 z"
 style="fill:#9c0000; fill-opacity:0.1; fill-rule:evenodd; stroke:#ffa07a; stroke-opacity:1.0; stroke-width:0.8;"/>

<g stroke="black" stroke-width="3" fill="black">
  <circle cx="10" cy="10" r="0.1"/>
  <circle cx="848" cy="10" r="0.1"/>
  <circle cx="848" cy="810" r="0.1"/>
  <circle cx="10" cy="810" r="0.1"/>
  <circle cx="10" cy="10" r="0.1"/>
  <circle cx="411" cy="278" r="0.1"/>
  <circle cx="406" cy="275" r="0.1"/>
  <circle cx="404" cy="273" r="0.1"/>
  <circle cx="385" cy="262" r="0.1"/>
  <circle cx="366" cy="246" r="0.1"/>
  <circle cx="352" cy="231" r="0.1"/>
  <circle cx="337" cy="206" r="0.1"/>
  <circle cx="325" cy="182" r="0.1"/>
  <circle cx="307" cy="157" r="0.1"/>
  <circle cx="291" cy="141" r="0.1"/>
  <circle cx="279" cy="136" r="0.1"/>
  <circle cx="311" cy="93" r="0.1"/>
  <circle cx="315" cy="97" r="0.1"/>
  <circle cx="318" cy="103" r="0.1"/>
  <circle cx="326" cy="119" r="0.1"/>
  <circle cx="331" cy="133" r="0.1"/>
  <circle cx="341" cy="152" r="0.1"/>
  <circle cx="349" cy="166" r="0.1"/>
  <circle cx="374" cy="195" r="0.1"/>
  <circle cx="391" cy="212" r="0.1"/>
  <circle cx="408" cy="226" r="0.1"/>
  <circle cx="422" cy="239" r="0.1"/>
  <circle cx="437" cy="250" r="0.1"/>
  <circle cx="279" cy="136" r="0.1"/>
  <circle cx="311" cy="93" r="0.1"/>
  <circle cx="437" cy="250" r="0.1"/>
  <circle cx="411" cy="278" r="0.1"/>
  <circle cx="666" cy="297" r="0.1"/>
  <circle cx="624" cy="258" r="0.1"/>
  <circle cx="596" cy="214" r="0.1"/>
  <circle cx="585" cy="192" r="0.1"/>
  <circle cx="569" cy="170" r="0.1"/>
  <circle cx="559" cy="162" r="0.1"/>
  <circle cx="539" cy="152" r="0.1"/>
  <circle cx="528" cy="146" r="0.1"/>
  <circle cx="572" cy="84" r="0.1"/>
  <circle cx="574" cy="88" r="0.1"/>
  <circle cx="592" cy="119" r="0.1"/>
  <circle cx="601" cy="132" r="0.1"/>
  <circle cx="639" cy="169" r="0.1"/>
  <circle cx="655" cy="185" r="0.1"/>
  <circle cx="674" cy="209" r="0.1"/>
  <circle cx="693" cy="231" r="0.1"/>
  <circle cx="666" cy="297" r="0.1"/>
  <circle cx="528" cy="146" r="0.1"/>
  <circle cx="566" cy="93" r="0.1"/>
  <circle cx="566" cy="93" r="0.1"/>
  <circle cx="572" cy="84" r="0.1"/>
  <circle cx="380" cy="318" r="0.1"/>
  <circle cx="378" cy="315" r="0.1"/>
  <circle cx="365" cy="301" r="0.1"/>
  <circle cx="354" cy="291" r="0.1"/>
  <circle cx="339" cy="279" r="0.1"/>
  <circle cx="280" cy="236" r="0.1"/>
  <circle cx="248" cy="207" r="0.1"/>
  <circle cx="229" cy="194" r="0.1"/>
  <circle cx="229" cy="194" r="0.1"/>
  <circle cx="279" cy="136" r="0.1"/>
  <circle cx="411" cy="278" r="0.1"/>
  <circle cx="380" cy="318" r="0.1"/>
  <circle cx="179" cy="244" r="0.1"/>
  <circle cx="229" cy="194" r="0.1"/>
  <circle cx="342" cy="402" r="0.1"/>
  <circle cx="328" cy="369" r="0.1"/>
  <circle cx="304" cy="316" r="0.1"/>
  <circle cx="293" cy="299" r="0.1"/>
  <circle cx="275" cy="278" r="0.1"/>
  <circle cx="268" cy="272" r="0.1"/>
  <circle cx="256" cy="263" r="0.1"/>
  <circle cx="229" cy="253" r="0.1"/>
  <circle cx="220" cy="249" r="0.1"/>
  <circle cx="179" cy="244" r="0.1"/>
  <circle cx="380" cy="318" r="0.1"/>
  <circle cx="342" cy="402" r="0.1"/>
  <circle cx="666" cy="297" r="0.1"/>
  <circle cx="651" cy="330" r="0.1"/>
  <circle cx="636" cy="379" r="0.1"/>
  <circle cx="625" cy="355" r="0.1"/>
  <circle cx="611" cy="331" r="0.1"/>
  <circle cx="594" cy="307" r="0.1"/>
  <circle cx="579" cy="287" r="0.1"/>
  <circle cx="562" cy="270" r="0.1"/>
  <circle cx="530" cy="246" r="0.1"/>
  <circle cx="517" cy="238" r="0.1"/>
  <circle cx="504" cy="226" r="0.1"/>
  <circle cx="496" cy="217" r="0.1"/>
  <circle cx="491" cy="210" r="0.1"/>
  <circle cx="488" cy="202" r="0.1"/>
  <circle cx="488" cy="202" r="0.1"/>
  <circle cx="506" cy="176" r="0.1"/>
  <circle cx="651" cy="330" r="0.1"/>
  <circle cx="636" cy="379" r="0.1"/>
  <circle cx="506" cy="176" r="0.1"/>
  <circle cx="528" cy="146" r="0.1"/>
  <circle cx="848" cy="800" r="0.1"/>
  <circle cx="843" cy="792" r="0.1"/>
  <circle cx="830" cy="767" r="0.1"/>
  <circle cx="800" cy="750" r="0.1"/>
  <circle cx="732" cy="715" r="0.1"/>
  <circle cx="687" cy="688" r="0.1"/>
  <circle cx="656" cy="664" r="0.1"/>
  <circle cx="630" cy="628" r="0.1"/>
  <circle cx="609" cy="594" r="0.1"/>
  <circle cx="594" cy="573" r="0.1"/>
  <circle cx="578" cy="555" r="0.1"/>
  <circle cx="578" cy="555" r="0.1"/>
  <circle cx="588" cy="516" r="0.1"/>
  <circle cx="588" cy="516" r="0.1"/>
  <circle cx="608" cy="532" r="0.1"/>
  <circle cx="637" cy="561" r="0.1"/>
  <circle cx="668" cy="591" r="0.1"/>
  <circle cx="704" cy="620" r="0.1"/>
  <circle cx="746" cy="651" r="0.1"/>
  <circle cx="785" cy="681" r="0.1"/>
  <circle cx="847" cy="736" r="0.1"/>
  <circle cx="848" cy="736" r="0.1"/>
  <circle cx="666" cy="297" r="0.1"/>
  <circle cx="693" cy="321" r="0.1"/>
  <circle cx="729" cy="358" r="0.1"/>
  <circle cx="775" cy="421" r="0.1"/>
  <circle cx="821" cy="478" r="0.1"/>
  <circle cx="848" cy="501" r="0.1"/>
  <circle cx="848" cy="566" r="0.1"/>
  <circle cx="823" cy="543" r="0.1"/>
  <circle cx="802" cy="521" r="0.1"/>
  <circle cx="755" cy="469" r="0.1"/>
  <circle cx="734" cy="444" r="0.1"/>
  <circle cx="711" cy="418" r="0.1"/>
  <circle cx="688" cy="386" r="0.1"/>
  <circle cx="668" cy="351" r="0.1"/>
  <circle cx="651" cy="330" r="0.1"/>
  <circle cx="459" cy="229" r="0.1"/>
  <circle cx="488" cy="202" r="0.1"/>
  <circle cx="612" cy="448" r="0.1"/>
  <circle cx="589" cy="444" r="0.1"/>
  <circle cx="577" cy="439" r="0.1"/>
  <circle cx="566" cy="425" r="0.1"/>
  <circle cx="559" cy="405" r="0.1"/>
  <circle cx="558" cy="385" r="0.1"/>
  <circle cx="562" cy="362" r="0.1"/>
  <circle cx="562" cy="347" r="0.1"/>
  <circle cx="558" cy="328" r="0.1"/>
  <circle cx="542" cy="303" r="0.1"/>
  <circle cx="531" cy="292" r="0.1"/>
  <circle cx="517" cy="281" r="0.1"/>
  <circle cx="487" cy="264" r="0.1"/>
  <circle cx="477" cy="257" r="0.1"/>
  <circle cx="468" cy="247" r="0.1"/>
  <circle cx="462" cy="240" r="0.1"/>
  <circle cx="460" cy="236" r="0.1"/>
  <circle cx="459" cy="229" r="0.1"/>
  <circle cx="636" cy="379" r="0.1"/>
  <circle cx="612" cy="448" r="0.1"/>
  <circle cx="459" cy="229" r="0.1"/>
  <circle cx="418" cy="191" r="0.1"/>
  <circle cx="400" cy="171" r="0.1"/>
  <circle cx="382" cy="147" r="0.1"/>
  <circle cx="368" cy="127" r="0.1"/>
  <circle cx="337" cy="68" r="0.1"/>
  <circle cx="311" cy="93" r="0.1"/>
  <circle cx="311" cy="93" r="0.1"/>
  <circle cx="283" cy="67" r="0.1"/>
  <circle cx="259" cy="38" r="0.1"/>
  <circle cx="241" cy="12" r="0.1"/>
  <circle cx="240" cy="10" r="0.1"/>
  <circle cx="291" cy="10" r="0.1"/>
  <circle cx="307" cy="28" r="0.1"/>
  <circle cx="319" cy="39" r="0.1"/>
  <circle cx="328" cy="47" r="0.1"/>
  <circle cx="333" cy="50" r="0.1"/>
  <circle cx="346" cy="60" r="0.1"/>
  <circle cx="363" cy="42" r="0.1"/>
  <circle cx="363" cy="42" r="0.1"/>
  <circle cx="369" cy="63" r="0.1"/>
  <circle cx="382" cy="89" r="0.1"/>
  <circle cx="396" cy="107" r="0.1"/>
  <circle cx="414" cy="122" r="0.1"/>
  <circle cx="460" cy="147" r="0.1"/>
  <circle cx="472" cy="155" r="0.1"/>
  <circle cx="487" cy="164" r="0.1"/>
  <circle cx="506" cy="176" r="0.1"/>
  <circle cx="756" cy="63" r="0.1"/>
  <circle cx="763" cy="10" r="0.1"/>
  <circle cx="747" cy="106" r="0.1"/>
  <circle cx="756" cy="63" r="0.1"/>
  <circle cx="848" cy="289" r="0.1"/>
  <circle cx="837" cy="280" r="0.1"/>
  <circle cx="774" cy="226" r="0.1"/>
  <circle cx="756" cy="215" r="0.1"/>
  <circle cx="729" cy="202" r="0.1"/>
  <circle cx="714" cy="193" r="0.1"/>
  <circle cx="710" cy="189" r="0.1"/>
  <circle cx="724" cy="161" r="0.1"/>
  <circle cx="747" cy="106" r="0.1"/>
  <circle cx="607" cy="37" r="0.1"/>
  <circle cx="587" cy="22" r="0.1"/>
  <circle cx="573" cy="10" r="0.1"/>
  <circle cx="626" cy="10" r="0.1"/>
  <circle cx="607" cy="37" r="0.1"/>
  <circle cx="756" cy="63" r="0.1"/>
  <circle cx="744" cy="56" r="0.1"/>
  <circle cx="732" cy="46" r="0.1"/>
  <circle cx="714" cy="20" r="0.1"/>
  <circle cx="709" cy="10" r="0.1"/>
  <circle cx="747" cy="106" r="0.1"/>
  <circle cx="729" cy="101" r="0.1"/>
  <circle cx="717" cy="96" r="0.1"/>
  <circle cx="704" cy="87" r="0.1"/>
  <circle cx="698" cy="80" r="0.1"/>
  <circle cx="690" cy="66" r="0.1"/>
  <circle cx="684" cy="47" r="0.1"/>
  <circle cx="674" cy="15" r="0.1"/>
  <circle cx="670" cy="10" r="0.1"/>
  <circle cx="459" cy="229" r="0.1"/>
  <circle cx="437" cy="250" r="0.1"/>
  <circle cx="279" cy="136" r="0.1"/>
  <circle cx="254" cy="122" r="0.1"/>
  <circle cx="247" cy="122" r="0.1"/>
  <circle cx="233" cy="118" r="0.1"/>
  <circle cx="217" cy="113" r="0.1"/>
  <circle cx="202" cy="102" r="0.1"/>
  <circle cx="189" cy="88" r="0.1"/>
  <circle cx="173" cy="63" r="0.1"/>
  <circle cx="157" cy="29" r="0.1"/>
  <circle cx="145" cy="10" r="0.1"/>
  <circle cx="229" cy="194" r="0.1"/>
  <circle cx="195" cy="175" r="0.1"/>
  <circle cx="178" cy="157" r="0.1"/>
  <circle cx="158" cy="133" r="0.1"/>
  <circle cx="140" cy="114" r="0.1"/>
  <circle cx="125" cy="96" r="0.1"/>
  <circle cx="110" cy="77" r="0.1"/>
  <circle cx="100" cy="61" r="0.1"/>
  <circle cx="85" cy="29" r="0.1"/>
  <circle cx="77" cy="10" r="0.1"/>
  <circle cx="339" cy="10" r="0.1"/>
  <circle cx="345" cy="18" r="0.1"/>
  <circle cx="363" cy="42" r="0.1"/>
  <circle cx="78" cy="810" r="0.1"/>
  <circle cx="182" cy="735" r="0.1"/>
  <circle cx="188" cy="726" r="0.1"/>
  <circle cx="244" cy="670" r="0.1"/>
  <circle cx="291" cy="704" r="0.1"/>
  <circle cx="317" cy="727" r="0.1"/>
  <circle cx="339" cy="740" r="0.1"/>
  <circle cx="378" cy="749" r="0.1"/>
  <circle cx="410" cy="749" r="0.1"/>
  <circle cx="447" cy="745" r="0.1"/>
  <circle cx="469" cy="740" r="0.1"/>
  <circle cx="480" cy="736" r="0.1"/>
  <circle cx="446" cy="810" r="0.1"/>
  <circle cx="21" cy="484" r="0.1"/>
  <circle cx="36" cy="530" r="0.1"/>
  <circle cx="27" cy="559" r="0.1"/>
  <circle cx="10" cy="571" r="0.1"/>
  <circle cx="10" cy="475" r="0.1"/>
  <circle cx="21" cy="484" r="0.1"/>
  <circle cx="179" cy="244" r="0.1"/>
  <circle cx="153" cy="228" r="0.1"/>
  <circle cx="126" cy="205" r="0.1"/>
  <circle cx="95" cy="175" r="0.1"/>
  <circle cx="66" cy="137" r="0.1"/>
  <circle cx="46" cy="106" r="0.1"/>
  <circle cx="29" cy="77" r="0.1"/>
  <circle cx="21" cy="62" r="0.1"/>
  <circle cx="10" cy="35" r="0.1"/>
  <circle cx="760" cy="810" r="0.1"/>
  <circle cx="749" cy="803" r="0.1"/>
  <circle cx="705" cy="771" r="0.1"/>
  <circle cx="656" cy="735" r="0.1"/>
  <circle cx="570" cy="692" r="0.1"/>
  <circle cx="516" cy="678" r="0.1"/>
  <circle cx="516" cy="678" r="0.1"/>
  <circle cx="577" cy="558" r="0.1"/>
  <circle cx="578" cy="555" r="0.1"/>
  <circle cx="684" cy="810" r="0.1"/>
  <circle cx="649" cy="782" r="0.1"/>
  <circle cx="592" cy="743" r="0.1"/>
  <circle cx="532" cy="726" r="0.1"/>
  <circle cx="483" cy="732" r="0.1"/>
  <circle cx="503" cy="703" r="0.1"/>
  <circle cx="516" cy="678" r="0.1"/>
  <circle cx="342" cy="402" r="0.1"/>
  <circle cx="312" cy="523" r="0.1"/>
  <circle cx="303" cy="514" r="0.1"/>
  <circle cx="295" cy="499" r="0.1"/>
  <circle cx="289" cy="482" r="0.1"/>
  <circle cx="281" cy="436" r="0.1"/>
  <circle cx="273" cy="383" r="0.1"/>
  <circle cx="264" cy="350" r="0.1"/>
  <circle cx="249" cy="327" r="0.1"/>
  <circle cx="234" cy="311" r="0.1"/>
  <circle cx="214" cy="300" r="0.1"/>
  <circle cx="189" cy="287" r="0.1"/>
  <circle cx="144" cy="277" r="0.1"/>
  <circle cx="179" cy="244" r="0.1"/>
  <circle cx="612" cy="448" r="0.1"/>
  <circle cx="588" cy="516" r="0.1"/>
  <circle cx="572" cy="84" r="0.1"/>
  <circle cx="586" cy="64" r="0.1"/>
  <circle cx="579" cy="59" r="0.1"/>
  <circle cx="577" cy="58" r="0.1"/>
  <circle cx="563" cy="39" r="0.1"/>
  <circle cx="548" cy="27" r="0.1"/>
  <circle cx="535" cy="18" r="0.1"/>
  <circle cx="519" cy="10" r="0.1"/>
  <circle cx="518" cy="10" r="0.1"/>
  <circle cx="475" cy="20" r="0.1"/>
  <circle cx="489" cy="33" r="0.1"/>
  <circle cx="503" cy="41" r="0.1"/>
  <circle cx="517" cy="48" r="0.1"/>
  <circle cx="531" cy="57" r="0.1"/>
  <circle cx="553" cy="76" r="0.1"/>
  <circle cx="563" cy="87" r="0.1"/>
  <circle cx="566" cy="93" r="0.1"/>
  <circle cx="467" cy="10" r="0.1"/>
  <circle cx="475" cy="20" r="0.1"/>
  <circle cx="528" cy="146" r="0.1"/>
  <circle cx="522" cy="128" r="0.1"/>
  <circle cx="511" cy="111" r="0.1"/>
  <circle cx="500" cy="99" r="0.1"/>
  <circle cx="485" cy="87" r="0.1"/>
  <circle cx="460" cy="79" r="0.1"/>
  <circle cx="447" cy="72" r="0.1"/>
  <circle cx="432" cy="61" r="0.1"/>
  <circle cx="421" cy="50" r="0.1"/>
  <circle cx="410" cy="34" r="0.1"/>
  <circle cx="401" cy="14" r="0.1"/>
  <circle cx="399" cy="10" r="0.1"/>
  <circle cx="398" cy="10" r="0.1"/>
  <circle cx="363" cy="42" r="0.1"/>
</g>
</g>
</g>
</svg>
