<?xml version="1.0" standalone="no"?>
<!DOCTYPE svg PUBLIC "-//W3C//DTD SVG 1.0//EN"
"http://www.w3.org/TR/2001/REC-SVG-20010904/DTD/svg10.dtd">

<svg width="1220px" height="764px" viewBox="0 0 1220 764" version="1.0" xmlns="http://www.w3.org/2000/svg">

<g transform="translate(0,764)">
<g transform="scale(1,-1)">
<path d=" M 10.0 10.0 L 1210.0 10.0 L 1210.0 754.1 L 10.0 754.1 L 10.0 10.0"
 style="fill:none; stroke:#b3b3da; stroke-opacity:1.0; stroke-width:0.8; " />

<path d=" M 613.2 603.9 L 624.3 625.9 L 638.5 683.8 L 640.2 690.5 L 650.1 712.7 L 658.2 719.5 L 672.4 715.6 L 677.1 742.3 L 677.2 743.1 L 677.9 745.7 L 679.9 754.1 L 641.7 754.1 L 640.0 752.7 L 635.6 749.1 L 632.4 745.9 L 631.8 742.3 L 632.1 739.8 L 632.4 738.2 L 633.1 733.3 L 633.5 728.2 L 634.0 722.7 L 634.0 717.1 L 632.1 712.5 L 630.7 711.0 L 628.7 709.0 L 625.0 708.7 L 622.5 709.7 L 620.9 711.4 L 617.5 714.9 L 616.9 716.0 L 615.4 718.3 L 613.6 721.1 L 609.5 719.3 L 607.3 718.7 L 611.4 712.6 L 616.7 705.7 L 615.8 704.4 L 615.0 701.3 L 614.4 699.6 L 613.6 695.9 L 611.8 666.7 L 606.0 625.6 L 598.9 601.8 L 589.8 601.3 L 597.1 555.0 L 613.2 603.9 z M 25.2 490.4 L 10.0 487.5 L 10.0 476.0 L 25.2 490.4 z M 31.0 407.5 L 35.4 426.0 L 35.1 454.6 L 32.6 469.0 L 34.3 478.5 L 29.6 480.3 L 22.1 473.0 L 18.3 463.5 L 13.0 452.3 L 10.0 451.2 L 10.0 409.4 L 18.9 405.1 L 31.0 407.5 z M 1172.3 688.9 L 1174.1 690.1 L 1176.5 692.4 L 1185.7 694.8 L 1191.0 695.1 L 1195.8 695.0 L 1200.8 694.4 L 1210.0 689.4 L 1210.0 716.2 L 1206.7 715.0 L 1202.4 716.0 L 1199.3 721.2 L 1192.6 722.9 L 1186.6 716.0 L 1183.9 711.2 L 1175.6 713.5 L 1168.6 710.4 L 1162.2 702.5 L 1162.2 690.8 L 1162.2 690.7 L 1164.0 688.3 L 1169.5 683.5 L 1172.3 688.9 z M 1072.7 505.5 L 1076.0 506.3 L 1080.4 508.2 L 1084.1 510.7 L 1086.1 511.9 L 1092.4 514.9 L 1096.9 516.4 L 1109.0 521.9 L 1115.6 524.3 L 1119.0 524.7 L 1121.1 524.8 L 1123.3 524.4 L 1128.8 522.5 L 1136.9 518.7 L 1142.0 516.0 L 1147.3 514.8 L 1151.1 514.6 L 1154.2 515.2 L 1159.3 517.2 L 1162.7 519.2 L 1164.4 520.5 L 1166.8 523.2 L 1170.6 528.1 L 1177.1 538.1 L 1178.7 539.8 L 1181.9 542.6 L 1182.0 545.4 L 1182.9 547.3 L 1189.6 555.2 L 1195.3 561.4 L 1198.0 563.7 L 1199.1 564.5 L 1202.0 565.7 L 1205.1 566.3 L 1208.8 565.4 L 1210.0 564.7 L 1210.0 607.1 L 1207.0 606.8 L 1202.0 606.9 L 1199.0 607.5 L 1197.5 608.5 L 1193.1 612.3 L 1191.5 614.0 L 1185.9 617.6 L 1181.7 619.2 L 1179.4 619.6 L 1176.9 619.4 L 1169.1 617.0 L 1161.5 614.2 L 1157.9 611.3 L 1156.2 610.1 L 1155.2 609.9 L 1152.4 607.6 L 1148.3 602.5 L 1144.4 597.9 L 1142.6 596.7 L 1138.7 595.5 L 1130.8 592.3 L 1120.7 585.6 L 1115.0 581.6 L 1109.1 576.8 L 1102.0 571.5 L 1099.6 569.4 L 1096.7 566.1 L 1093.1 561.0 L 1092.1 559.7 L 1090.9 559.0 L 1087.6 557.9 L 1086.3 558.0 L 1084.3 559.8 L 1083.9 560.7 L 1084.1 563.1 L 1083.0 566.0 L 1081.7 566.8 L 1079.0 566.8 L 1076.7 566.4 L 1073.5 565.0 L 1069.8 562.9 L 1066.6 559.8 L 1059.8 554.8 L 1056.1 552.6 L 1051.1 551.3 L 1051.1 550.0 L 1052.6 547.7 L 1058.3 542.5 L 1059.8 540.0 L 1060.9 536.1 L 1061.2 531.9 L 1060.5 525.2 L 1060.3 514.9 L 1061.1 511.0 L 1064.1 507.8 L 1065.5 506.8 L 1066.9 506.2 L 1070.4 505.4 L 1072.7 505.5 z M 49.2 299.7 L 58.4 309.6 L 63.7 315.8 L 72.6 327.3 L 76.8 332.3 L 94.0 350.5 L 99.7 356.0 L 104.7 361.5 L 108.6 365.1 L 125.9 378.9 L 130.3 382.9 L 138.1 390.8 L 143.8 398.2 L 147.1 402.8 L 153.6 415.1 L 154.7 417.6 L 156.0 422.2 L 156.5 426.1 L 156.1 428.0 L 153.7 430.6 L 152.9 431.2 L 152.1 431.3 L 148.4 429.9 L 145.4 428.4 L 142.5 425.5 L 140.6 422.9 L 132.1 407.8 L 130.2 405.2 L 129.1 404.0 L 111.9 395.5 L 97.7 384.7 L 94.4 379.9 L 89.6 364.6 L 88.1 360.0 L 86.7 355.6 L 78.6 347.1 L 69.2 338.6 L 54.1 324.9 L 48.4 312.4 L 48.1 298.5 L 49.2 299.7 z M 220.1 356.7 L 221.8 357.4 L 222.0 358.0 L 234.3 377.9 L 237.0 380.9 L 236.9 381.5 L 236.8 386.7 L 237.7 391.4 L 239.6 395.2 L 244.4 401.3 L 250.3 408.0 L 260.7 415.9 L 266.0 420.7 L 267.8 423.2 L 268.0 424.5 L 267.8 425.9 L 266.0 428.8 L 262.7 431.5 L 260.8 432.1 L 257.5 433.6 L 242.5 414.8 L 221.6 392.3 L 222.5 381.5 L 214.8 371.6 L 214.7 370.8 L 215.0 367.1 L 214.8 364.2 L 216.0 358.5 L 217.6 356.8 L 218.3 356.5 L 220.1 356.7 z M 11.8 676.4 L 26.7 692.1 L 42.4 713.7 L 53.5 731.9 L 61.1 744.4 L 66.3 753.7 L 66.4 754.1 L 57.6 754.1 L 51.4 741.1 L 43.3 731.5 L 32.7 718.9 L 17.5 700.9 L 10.0 691.8 L 10.0 674.9 L 11.8 676.4 z M 693.0 720.0 L 696.3 742.7 L 696.4 743.5 L 696.7 746.1 L 697.7 754.1 L 679.9 754.1 L 677.9 745.7 L 677.2 743.1 L 677.1 742.3 L 672.4 715.6 L 682.9 712.9 L 693.0 720.0 z M 495.2 272.5 L 502.3 277.6 L 504.4 279.0 L 506.6 279.9 L 508.5 280.4 L 513.8 280.8 L 514.6 280.5 L 517.1 278.7 L 521.4 276.6 L 523.8 276.2 L 525.7 276.9 L 526.7 277.6 L 528.1 280.7 L 528.6 282.8 L 528.9 287.8 L 527.7 293.3 L 525.8 296.4 L 525.0 298.6 L 524.4 303.4 L 524.7 305.2 L 525.5 306.2 L 528.1 307.7 L 532.2 309.3 L 535.8 310.2 L 540.1 310.7 L 543.1 310.2 L 550.3 309.5 L 555.0 309.9 L 557.3 311.8 L 557.8 314.9 L 557.7 317.6 L 556.2 319.5 L 554.9 322.5 L 550.3 326.3 L 548.9 330.0 L 548.5 332.1 L 548.9 334.2 L 552.0 338.9 L 553.4 342.0 L 554.7 343.3 L 564.0 350.1 L 570.7 354.2 L 579.0 361.4 L 583.9 364.9 L 588.6 369.1 L 590.7 371.5 L 592.7 374.6 L 594.1 377.7 L 595.6 379.7 L 595.9 380.4 L 595.1 387.3 L 595.2 390.6 L 595.5 391.8 L 595.4 394.7 L 595.2 398.4 L 596.1 402.5 L 596.5 407.0 L 596.5 411.6 L 595.8 415.1 L 594.1 420.7 L 589.9 431.7 L 588.3 437.4 L 585.9 448.3 L 585.5 449.4 L 584.1 452.0 L 583.6 452.8 L 581.8 455.4 L 580.1 456.9 L 571.3 461.4 L 557.4 451.2 L 552.4 449.7 L 551.7 448.6 L 550.2 447.2 L 547.6 445.4 L 543.6 443.7 L 541.5 442.2 L 534.7 439.8 L 532.3 438.3 L 530.7 436.7 L 527.6 431.2 L 527.2 430.1 L 526.3 426.0 L 522.1 419.3 L 520.9 417.9 L 516.4 414.6 L 514.3 412.5 L 509.8 407.5 L 508.6 405.2 L 507.1 400.0 L 506.0 397.9 L 503.9 394.7 L 499.9 389.8 L 497.8 388.6 L 495.2 387.1 L 493.2 386.8 L 490.2 387.8 L 489.3 387.7 L 485.7 387.0 L 485.1 386.6 L 481.4 383.4 L 480.3 381.8 L 478.7 378.8 L 477.3 375.6 L 476.1 371.7 L 473.2 366.1 L 470.8 362.7 L 466.2 357.1 L 463.3 354.2 L 461.3 351.5 L 457.8 345.8 L 455.0 340.6 L 449.2 328.0 L 447.3 324.8 L 442.9 321.2 L 441.9 320.8 L 438.5 320.2 L 436.8 320.4 L 426.6 322.1 L 420.2 322.4 L 417.7 322.2 L 415.3 321.7 L 412.3 319.7 L 410.9 318.2 L 409.6 314.5 L 410.0 308.1 L 410.4 306.1 L 411.9 304.6 L 413.6 300.4 L 414.1 299.7 L 414.6 298.1 L 415.2 297.3 L 417.3 295.6 L 418.7 295.0 L 420.6 294.9 L 428.5 295.2 L 430.9 294.9 L 437.1 295.1 L 440.9 294.6 L 442.7 293.8 L 444.5 292.6 L 446.1 291.2 L 452.5 284.3 L 454.5 284.3 L 456.0 285.9 L 457.4 288.7 L 459.4 291.2 L 462.2 294.0 L 464.7 295.8 L 468.4 297.3 L 471.5 297.8 L 475.3 297.8 L 475.6 297.7 L 478.9 297.4 L 482.5 296.7 L 483.5 296.4 L 486.2 294.6 L 488.0 290.9 L 488.7 283.3 L 488.5 276.8 L 488.9 275.3 L 490.0 272.8 L 491.1 272.0 L 492.6 271.7 L 495.2 272.5 z M 1210.0 564.7 L 1208.8 565.4 L 1205.1 566.3 L 1202.0 565.7 L 1199.1 564.5 L 1198.0 563.7 L 1195.3 561.4 L 1189.6 555.2 L 1182.9 547.3 L 1182.0 545.4 L 1181.9 542.6 L 1182.9 542.2 L 1183.5 542.4 L 1186.9 542.2 L 1191.4 541.2 L 1199.3 538.4 L 1202.0 537.0 L 1204.8 536.0 L 1209.8 534.8 L 1210.0 534.7 L 1210.0 564.7 z M 339.7 16.0 L 340.1 22.2 L 345.7 19.3 L 349.1 13.2 L 350.1 12.7 L 351.9 13.5 L 353.8 14.4 L 356.3 19.1 L 358.0 22.2 L 360.2 34.4 L 375.9 64.1 L 412.3 129.9 L 435.6 161.7 L 468.6 189.0 L 496.0 210.8 L 507.5 216.6 L 516.6 213.6 L 516.5 199.6 L 510.7 188.4 L 511.8 183.0 L 507.3 157.2 L 511.6 146.9 L 517.9 140.4 L 524.5 141.6 L 536.8 154.4 L 537.3 155.1 L 560.6 190.5 L 561.3 191.5 L 616.5 255.7 L 706.9 347.8 L 736.2 373.1 L 783.4 395.2 L 817.9 396.1 L 840.5 396.0 L 856.3 401.8 L 872.0 415.2 L 901.6 441.5 L 927.3 456.7 L 929.9 457.5 L 935.4 463.2 L 942.0 468.2 L 951.8 474.3 L 960.6 480.8 L 964.8 483.4 L 975.0 488.1 L 981.8 492.4 L 985.2 494.9 L 988.5 498.0 L 993.9 504.4 L 997.2 509.8 L 997.4 512.5 L 997.0 513.4 L 996.6 513.7 L 993.1 516.4 L 985.7 519.2 L 980.7 521.8 L 979.5 522.9 L 978.3 524.5 L 978.3 526.9 L 978.6 528.8 L 979.4 530.4 L 982.3 534.1 L 984.0 535.7 L 994.8 544.7 L 997.7 548.0 L 999.8 551.6 L 935.7 548.4 L 891.0 540.9 L 872.7 535.2 L 872.3 533.6 L 872.6 527.2 L 873.3 521.2 L 873.1 518.7 L 872.7 517.0 L 871.0 513.1 L 869.5 510.7 L 867.1 508.0 L 864.3 506.0 L 862.0 505.3 L 851.2 503.0 L 847.9 501.8 L 837.9 499.1 L 833.5 499.3 L 829.1 500.0 L 826.1 501.6 L 824.7 502.9 L 823.7 504.3 L 822.5 507.9 L 822.2 509.7 L 822.4 512.9 L 823.1 515.7 L 824.0 524.5 L 824.2 528.1 L 824.0 531.5 L 823.6 532.1 L 819.4 536.7 L 818.5 537.2 L 816.5 537.2 L 800.5 528.9 L 770.1 512.8 L 741.7 497.8 L 686.3 453.7 L 615.4 407.7 L 595.4 394.7 L 595.5 391.8 L 595.2 390.6 L 595.1 387.3 L 595.9 380.4 L 595.6 379.7 L 594.1 377.7 L 592.7 374.6 L 590.7 371.5 L 588.6 369.1 L 583.9 364.9 L 579.0 361.4 L 570.7 354.2 L 564.0 350.1 L 554.7 343.3 L 553.4 342.0 L 552.0 338.9 L 548.9 334.2 L 548.5 332.1 L 548.9 330.0 L 550.3 326.3 L 554.9 322.5 L 556.2 319.5 L 557.7 317.6 L 557.8 314.9 L 557.3 311.8 L 555.0 309.9 L 550.3 309.5 L 543.1 310.2 L 540.1 310.7 L 535.8 310.2 L 532.2 309.3 L 528.1 307.7 L 525.5 306.2 L 524.7 305.2 L 524.4 303.4 L 525.0 298.6 L 525.8 296.4 L 527.7 293.3 L 528.9 287.8 L 528.6 282.8 L 528.1 280.7 L 526.7 277.6 L 525.7 276.9 L 523.8 276.2 L 521.4 276.6 L 517.1 278.7 L 514.6 280.5 L 513.8 280.8 L 508.5 280.4 L 506.6 279.9 L 504.4 279.0 L 502.3 277.6 L 495.2 272.5 L 492.6 271.7 L 491.1 272.0 L 490.0 272.8 L 488.9 275.3 L 488.5 276.8 L 488.7 283.3 L 488.0 290.9 L 486.2 294.6 L 483.5 296.4 L 482.5 296.7 L 478.9 297.4 L 475.6 297.7 L 441.7 265.7 L 415.8 236.5 L 396.3 208.2 L 376.9 181.2 L 362.4 160.6 L 329.4 94.7 L 324.4 59.2 L 328.9 17.7 L 330.9 10.0 L 341.3 10.0 L 339.7 16.0 z M 1024.5 468.6 L 1046.2 480.3 L 1043.2 497.7 L 1048.7 517.2 L 1047.9 529.6 L 1039.1 539.9 L 1031.1 537.3 L 1027.9 535.0 L 1027.3 534.1 L 1025.1 529.0 L 1024.7 527.0 L 1024.7 522.5 L 1025.1 520.1 L 1024.6 516.2 L 1023.6 512.8 L 1023.0 511.6 L 1019.1 505.5 L 1011.5 495.9 L 1008.0 489.9 L 1006.7 485.8 L 1006.1 481.5 L 1005.4 472.2 L 1004.1 467.3 L 1003.7 466.4 L 1010.3 465.3 L 1024.5 468.6 z M 68.7 451.2 L 75.7 460.7 L 71.5 465.3 L 68.1 471.8 L 70.9 490.5 L 77.4 494.3 L 85.5 492.3 L 90.8 502.5 L 86.3 512.0 L 78.6 514.1 L 66.1 510.8 L 43.5 501.7 L 25.2 490.4 L 10.0 476.0 L 10.0 451.2 L 13.0 452.3 L 18.3 463.5 L 22.1 473.0 L 29.6 480.3 L 34.3 478.5 L 45.8 485.6 L 51.8 485.9 L 54.4 483.7 L 50.9 479.3 L 42.9 468.0 L 44.1 455.4 L 47.9 448.5 L 58.6 446.9 L 68.7 451.2 z M 941.0 21.4 L 948.9 29.2 L 949.9 30.6 L 954.3 34.7 L 961.9 42.5 L 971.4 54.2 L 979.1 62.3 L 988.6 71.2 L 992.1 74.1 L 1000.7 81.7 L 1008.9 87.9 L 1017.7 95.0 L 1025.0 101.3 L 1030.6 105.7 L 1037.8 112.2 L 1043.6 116.8 L 1053.1 123.6 L 1059.7 128.8 L 1073.6 138.5 L 1082.8 144.5 L 1095.2 151.8 L 1098.0 153.1 L 1100.4 154.6 L 1104.9 156.9 L 1112.0 161.4 L 1115.7 164.3 L 1141.5 181.6 L 1145.6 184.9 L 1151.2 188.2 L 1155.9 191.4 L 1162.1 196.2 L 1167.2 200.4 L 1168.6 201.8 L 1175.1 209.7 L 1177.9 214.1 L 1182.7 225.0 L 1185.4 230.1 L 1185.8 230.3 L 1206.2 250.9 L 1210.0 253.1 L 1210.0 294.9 L 1175.0 270.7 L 1121.2 232.7 L 1084.4 211.9 L 1060.3 206.2 L 1059.7 205.7 L 1055.3 201.0 L 1053.2 197.6 L 1047.9 190.6 L 1044.7 187.6 L 1042.9 186.2 L 1041.6 185.7 L 1032.5 185.3 L 1013.3 186.0 L 999.0 187.6 L 990.6 187.8 L 985.6 188.4 L 980.8 188.7 L 975.5 188.6 L 971.6 188.1 L 964.6 185.5 L 960.0 182.2 L 958.8 181.0 L 957.8 179.7 L 956.7 177.2 L 955.7 171.4 L 955.5 166.7 L 955.6 163.7 L 956.1 161.4 L 959.7 153.1 L 962.1 145.8 L 963.2 141.2 L 964.3 134.4 L 964.6 130.3 L 964.6 130.0 L 964.1 124.2 L 963.1 120.3 L 961.2 116.2 L 956.5 108.8 L 952.9 104.3 L 945.8 97.4 L 942.4 93.6 L 943.9 92.0 L 944.9 89.8 L 945.5 87.0 L 945.7 84.5 L 945.8 82.1 L 945.6 79.2 L 945.2 76.9 L 943.8 72.1 L 941.5 66.9 L 936.4 61.2 L 933.0 58.3 L 928.7 55.2 L 923.7 52.4 L 916.9 48.3 L 912.0 44.6 L 904.5 37.8 L 894.3 10.0 L 936.5 10.0 L 941.0 21.4 z M 1161.1 12.7 L 1145.6 17.4 L 1127.7 17.4 L 1103.8 10.0 L 1162.4 10.0 L 1161.1 12.7 z M 624.4 16.9 L 626.5 21.0 L 629.2 25.5 L 616.5 17.3 L 603.4 13.2 L 592.9 16.8 L 588.0 26.9 L 589.0 33.8 L 626.7 127.5 L 635.1 154.0 L 636.7 158.2 L 637.7 160.3 L 640.3 166.4 L 641.2 169.3 L 643.0 172.9 L 645.4 179.8 L 651.9 194.2 L 661.9 212.5 L 667.4 221.9 L 671.3 227.7 L 677.6 235.7 L 680.7 239.5 L 694.6 253.0 L 706.2 263.2 L 709.5 265.6 L 714.2 268.5 L 719.5 270.6 L 722.8 272.1 L 726.7 273.4 L 729.5 274.3 L 733.1 275.4 L 735.1 275.9 L 738.5 276.7 L 741.5 277.2 L 744.8 277.6 L 747.3 277.5 L 749.9 277.7 L 752.7 278.2 L 754.1 278.4 L 754.9 278.5 L 755.7 278.3 L 756.9 278.2 L 758.5 278.2 L 759.7 278.5 L 763.4 279.2 L 771.9 279.5 L 774.5 279.0 L 776.5 278.0 L 781.2 278.5 L 784.4 279.2 L 788.1 280.7 L 790.9 282.5 L 794.1 285.4 L 796.7 288.3 L 798.0 290.7 L 798.2 293.6 L 798.6 297.1 L 799.2 299.5 L 800.2 301.4 L 802.7 304.4 L 804.6 305.5 L 806.7 307.3 L 807.6 307.8 L 812.6 309.5 L 823.3 311.9 L 824.2 312.2 L 827.2 314.2 L 830.3 317.2 L 833.9 321.9 L 834.3 324.1 L 834.0 327.1 L 834.1 328.1 L 836.0 332.3 L 838.9 335.1 L 840.6 336.1 L 846.6 337.8 L 852.1 338.3 L 857.7 339.4 L 860.1 340.2 L 868.3 344.2 L 876.1 348.9 L 880.4 352.3 L 888.7 361.4 L 891.4 364.0 L 897.3 367.9 L 898.8 368.5 L 903.2 369.2 L 913.3 369.7 L 916.7 369.3 L 918.4 369.0 L 928.4 364.0 L 930.2 363.0 L 934.1 360.0 L 940.2 356.8 L 942.6 355.3 L 945.1 353.4 L 946.4 352.1 L 948.9 348.9 L 951.6 346.0 L 954.8 343.4 L 956.3 342.3 L 957.9 341.5 L 966.9 340.0 L 967.9 339.8 L 971.3 338.2 L 973.1 336.9 L 974.6 334.2 L 974.9 332.8 L 974.8 331.5 L 1016.7 370.3 L 1086.9 423.5 L 1086.9 424.5 L 1090.2 433.6 L 1096.6 442.5 L 1115.1 453.5 L 1118.3 459.3 L 1114.6 463.7 L 1108.3 462.0 L 1075.1 467.6 L 1055.5 472.6 L 1046.2 480.3 L 1024.5 468.6 L 1010.3 465.3 L 1003.7 466.4 L 1002.8 464.2 L 1002.1 461.2 L 1000.1 456.1 L 999.4 452.7 L 997.4 446.2 L 994.1 439.3 L 993.8 438.0 L 991.2 432.4 L 986.4 425.9 L 981.4 418.0 L 978.5 412.2 L 976.7 405.8 L 976.5 401.9 L 976.8 388.7 L 977.8 383.1 L 978.1 379.0 L 977.5 375.7 L 976.4 373.6 L 973.7 370.5 L 970.3 369.9 L 962.9 369.4 L 953.4 369.6 L 946.3 370.2 L 942.1 371.0 L 934.7 372.9 L 927.4 375.2 L 917.7 379.6 L 914.9 380.4 L 906.4 383.8 L 902.9 385.9 L 900.8 387.4 L 898.8 389.6 L 896.9 392.6 L 895.4 397.6 L 895.2 399.3 L 897.4 404.5 L 899.2 407.1 L 900.5 409.6 L 903.6 413.5 L 905.7 416.7 L 917.3 431.6 L 919.2 434.6 L 921.3 439.0 L 923.5 447.8 L 923.8 450.0 L 924.8 451.8 L 926.9 454.5 L 929.9 457.5 L 927.3 456.7 L 901.6 441.5 L 872.0 415.2 L 856.3 401.8 L 840.5 396.0 L 817.9 396.1 L 783.4 395.2 L 736.2 373.1 L 706.9 347.8 L 616.5 255.7 L 561.3 191.5 L 560.6 190.5 L 566.2 189.8 L 572.8 189.6 L 576.9 188.6 L 579.8 187.6 L 585.4 187.0 L 589.7 186.2 L 592.1 185.5 L 595.3 183.4 L 596.8 181.7 L 597.3 179.9 L 597.5 177.1 L 596.8 168.7 L 593.4 152.8 L 593.3 143.9 L 592.4 135.3 L 592.0 118.3 L 591.7 111.5 L 591.4 109.2 L 590.4 104.0 L 586.3 95.5 L 580.7 88.3 L 576.8 84.2 L 573.3 81.4 L 567.5 63.7 L 556.5 38.1 L 554.0 17.5 L 556.1 10.0 L 621.4 10.0 L 624.4 16.9 z M 1191.8 426.6 L 1197.9 428.9 L 1205.8 434.1 L 1210.0 435.3 L 1210.0 452.9 L 1199.5 452.8 L 1191.7 452.5 L 1184.0 450.8 L 1176.8 448.0 L 1175.9 447.4 L 1173.4 445.1 L 1172.1 443.4 L 1170.7 440.5 L 1170.0 438.5 L 1169.5 435.6 L 1169.6 433.8 L 1170.5 431.9 L 1171.8 430.5 L 1175.1 428.1 L 1175.2 428.0 L 1181.4 424.6 L 1185.4 423.4 L 1191.8 426.6 z M 158.7 256.4 L 155.1 264.3 L 150.5 269.8 L 146.0 272.0 L 134.9 272.9 L 125.8 272.2 L 117.2 271.3 L 104.8 270.8 L 98.5 274.6 L 95.9 278.0 L 95.2 283.7 L 96.1 297.1 L 96.6 315.7 L 96.6 317.9 L 97.4 319.0 L 97.4 319.0 L 97.8 321.3 L 106.6 336.5 L 120.0 348.6 L 147.0 374.4 L 148.6 376.2 L 152.0 378.7 L 159.1 382.7 L 171.5 391.7 L 184.9 402.3 L 189.0 405.2 L 191.2 407.1 L 204.5 418.6 L 206.3 420.3 L 209.3 423.6 L 211.8 426.9 L 214.2 430.9 L 216.2 435.5 L 217.5 439.5 L 219.0 445.1 L 220.2 454.8 L 220.2 467.3 L 218.0 477.0 L 216.1 482.4 L 214.3 485.2 L 212.8 487.1 L 208.9 490.8 L 204.4 494.3 L 201.7 496.1 L 193.5 500.2 L 188.5 501.6 L 184.8 501.9 L 181.1 501.7 L 173.4 501.2 L 162.5 498.3 L 146.6 490.4 L 132.8 483.7 L 124.2 478.6 L 108.5 467.3 L 106.6 465.2 L 103.0 459.7 L 97.2 449.1 L 91.0 436.2 L 86.6 424.0 L 84.4 415.6 L 83.3 410.0 L 82.6 403.9 L 81.9 395.2 L 81.5 389.0 L 81.3 383.7 L 81.9 379.3 L 82.8 374.9 L 84.3 370.2 L 88.1 360.0 L 89.6 364.6 L 87.2 377.7 L 86.7 382.1 L 86.5 385.1 L 86.7 388.2 L 88.2 407.4 L 88.8 410.4 L 92.5 424.1 L 95.6 433.6 L 97.1 436.5 L 107.8 455.3 L 112.5 459.9 L 135.9 477.6 L 154.0 485.8 L 157.6 488.7 L 169.2 492.2 L 176.5 493.2 L 185.1 493.1 L 191.3 491.8 L 198.5 489.7 L 202.6 487.0 L 208.0 480.7 L 211.0 475.5 L 213.1 469.1 L 214.3 460.5 L 213.1 452.0 L 211.0 443.0 L 208.9 436.4 L 205.5 430.6 L 202.8 427.1 L 195.1 420.6 L 181.6 410.3 L 134.5 370.5 L 101.5 336.1 L 88.1 313.4 L 84.8 302.0 L 82.2 286.2 L 80.5 274.0 L 81.7 267.8 L 82.0 266.8 L 83.6 264.3 L 86.7 260.8 L 89.6 257.9 L 93.7 255.2 L 94.7 254.8 L 98.0 254.2 L 100.0 254.0 L 105.2 255.5 L 113.6 260.2 L 116.9 261.2 L 118.9 261.2 L 122.4 261.7 L 127.9 261.4 L 134.3 261.7 L 146.6 260.9 L 149.2 259.1 L 151.4 257.4 L 153.5 255.1 L 159.1 247.3 L 159.9 246.0 L 160.5 244.0 L 158.7 256.4 z M 76.4 10.8 L 90.7 25.9 L 110.2 56.2 L 141.3 109.5 L 159.1 152.9 L 160.9 157.4 L 165.6 191.2 L 165.3 226.6 L 164.8 231.7 L 163.8 235.0 L 162.2 238.8 L 160.5 244.0 L 159.9 246.0 L 159.1 247.3 L 153.5 255.1 L 151.4 257.4 L 149.2 259.1 L 146.6 260.9 L 134.3 261.7 L 127.9 261.4 L 122.4 261.7 L 118.9 261.2 L 116.9 261.2 L 113.6 260.2 L 105.2 255.5 L 100.0 254.0 L 98.0 254.2 L 94.7 254.8 L 93.7 255.2 L 89.6 257.9 L 86.7 260.8 L 83.6 264.3 L 82.0 266.8 L 81.7 267.8 L 80.5 274.0 L 82.2 286.2 L 84.8 302.0 L 88.1 313.4 L 101.5 336.1 L 134.5 370.5 L 181.6 410.3 L 195.1 420.6 L 202.8 427.1 L 205.5 430.6 L 208.9 436.4 L 211.0 443.0 L 213.1 452.0 L 214.3 460.5 L 213.1 469.1 L 211.0 475.5 L 208.0 480.7 L 202.6 487.0 L 198.5 489.7 L 191.3 491.8 L 185.1 493.1 L 176.5 493.2 L 169.2 492.2 L 157.6 488.7 L 154.0 485.8 L 135.9 477.6 L 112.5 459.9 L 107.8 455.3 L 97.1 436.5 L 95.6 433.6 L 92.5 424.1 L 88.8 410.4 L 88.2 407.4 L 86.7 388.2 L 86.5 385.1 L 86.7 382.1 L 87.2 377.7 L 89.6 364.6 L 94.4 379.9 L 97.7 384.7 L 111.9 395.5 L 129.1 404.0 L 130.2 405.2 L 132.1 407.8 L 140.6 422.9 L 142.5 425.5 L 145.4 428.4 L 148.4 429.9 L 152.1 431.3 L 152.9 431.2 L 153.7 430.6 L 156.1 428.0 L 156.5 426.1 L 156.0 422.2 L 154.7 417.6 L 153.6 415.1 L 147.1 402.8 L 143.8 398.2 L 138.1 390.8 L 130.3 382.9 L 125.9 378.9 L 108.6 365.1 L 104.7 361.5 L 99.7 356.0 L 94.0 350.5 L 76.8 332.3 L 72.6 327.3 L 63.7 315.8 L 58.4 309.6 L 49.2 299.7 L 48.1 298.5 L 47.5 273.1 L 33.5 270.6 L 23.5 263.5 L 11.6 246.0 L 10.0 242.3 L 10.0 45.7 L 10.1 45.4 L 13.0 33.0 L 19.1 25.3 L 27.3 29.8 L 35.8 42.4 L 36.9 42.5 L 41.5 43.0 L 45.5 38.6 L 47.9 44.1 L 53.5 54.7 L 55.8 65.8 L 60.4 78.5 L 62.5 89.7 L 66.7 101.7 L 78.2 123.9 L 85.8 134.3 L 93.5 145.8 L 98.1 157.4 L 99.7 163.9 L 99.7 172.0 L 99.6 178.6 L 96.5 191.5 L 90.7 195.7 L 79.8 196.1 L 71.7 193.1 L 66.6 188.3 L 60.9 181.2 L 53.0 170.6 L 47.4 165.1 L 41.0 155.4 L 33.6 144.7 L 30.8 137.0 L 29.4 122.7 L 29.4 112.9 L 29.8 105.2 L 30.6 97.3 L 36.1 90.2 L 40.1 90.0 L 43.9 92.2 L 51.3 96.7 L 46.2 82.3 L 44.6 72.0 L 37.9 72.3 L 31.9 74.5 L 27.6 77.4 L 22.6 81.5 L 22.6 90.7 L 21.6 99.9 L 21.4 115.0 L 21.3 123.3 L 21.6 135.1 L 24.6 145.6 L 28.4 156.2 L 35.4 168.5 L 43.1 178.0 L 49.7 188.6 L 54.8 197.5 L 60.8 205.5 L 67.4 214.4 L 77.5 224.0 L 83.2 226.7 L 90.4 227.7 L 94.8 219.9 L 96.4 216.7 L 102.9 210.5 L 107.7 205.2 L 111.8 201.9 L 114.3 196.6 L 114.1 185.5 L 113.9 177.4 L 113.4 170.8 L 111.0 162.6 L 106.9 154.4 L 104.3 149.2 L 102.8 146.0 L 98.5 139.7 L 94.4 130.0 L 88.2 121.2 L 85.2 115.7 L 79.7 104.1 L 75.2 93.1 L 71.5 75.8 L 71.2 62.7 L 66.3 52.4 L 61.5 37.8 L 53.6 28.4 L 46.2 18.5 L 38.1 10.0 L 76.1 10.0 L 76.4 10.8 z M 1127.7 17.4 L 1145.6 17.4 L 1161.1 12.7 L 1162.4 10.0 L 1210.0 10.0 L 1210.0 253.1 L 1206.2 250.9 L 1185.8 230.3 L 1185.4 230.1 L 1182.7 225.0 L 1177.9 214.1 L 1175.1 209.7 L 1168.6 201.8 L 1167.2 200.4 L 1162.1 196.2 L 1155.9 191.4 L 1151.2 188.2 L 1145.6 184.9 L 1141.5 181.6 L 1115.7 164.3 L 1112.0 161.4 L 1104.9 156.9 L 1100.4 154.6 L 1098.0 153.1 L 1095.2 151.8 L 1082.8 144.5 L 1073.6 138.5 L 1059.7 128.8 L 1053.1 123.6 L 1043.6 116.8 L 1037.8 112.2 L 1030.6 105.7 L 1025.0 101.3 L 1017.7 95.0 L 1008.9 87.9 L 1000.7 81.7 L 992.1 74.1 L 988.6 71.2 L 979.1 62.3 L 971.4 54.2 L 961.9 42.5 L 954.3 34.7 L 949.9 30.6 L 948.9 29.2 L 941.0 21.4 L 936.5 10.0 L 1103.8 10.0 L 1127.7 17.4 z M 135.2 526.7 L 152.2 536.5 L 168.9 542.0 L 176.7 553.9 L 178.9 567.0 L 187.7 571.7 L 205.4 573.9 L 223.8 576.0 L 247.4 571.9 L 253.2 570.6 L 260.8 573.8 L 262.1 576.6 L 264.6 581.8 L 257.4 596.7 L 246.5 605.4 L 229.9 606.0 L 211.6 604.5 L 203.3 603.0 L 175.4 594.6 L 163.2 586.9 L 153.0 578.9 L 149.7 572.9 L 149.0 561.8 L 123.0 542.8 L 120.0 534.8 L 121.1 525.4 L 125.9 523.2 L 135.2 526.7 z M 324.7 15.1 L 321.8 26.8 L 318.4 45.1 L 317.2 54.4 L 316.9 58.5 L 317.1 67.9 L 317.8 76.3 L 318.7 83.0 L 320.8 92.3 L 322.2 97.2 L 325.7 105.3 L 331.5 121.5 L 333.9 126.9 L 339.0 136.8 L 350.8 156.2 L 360.3 172.6 L 395.2 226.0 L 420.2 252.4 L 421.7 254.0 L 434.4 265.0 L 437.5 267.9 L 449.1 279.9 L 452.5 284.3 L 446.1 291.2 L 444.5 292.6 L 442.7 293.8 L 440.9 294.6 L 437.1 295.1 L 430.9 294.9 L 428.5 295.2 L 420.6 294.9 L 418.7 295.0 L 417.3 295.6 L 415.2 297.3 L 414.6 298.1 L 414.1 299.7 L 413.6 300.4 L 411.9 304.6 L 410.4 306.1 L 410.0 308.1 L 409.6 314.5 L 410.9 318.2 L 412.3 319.7 L 415.3 321.7 L 417.7 322.2 L 420.2 322.4 L 426.6 322.1 L 436.8 320.4 L 438.5 320.2 L 441.9 320.8 L 442.9 321.2 L 447.3 324.8 L 449.2 328.0 L 455.0 340.6 L 457.8 345.8 L 461.3 351.5 L 463.3 354.2 L 466.2 357.1 L 470.8 362.7 L 473.2 366.1 L 476.1 371.7 L 477.3 375.6 L 478.7 378.8 L 480.3 381.8 L 481.4 383.4 L 485.1 386.6 L 485.7 387.0 L 489.3 387.7 L 490.2 387.8 L 493.2 386.8 L 495.2 387.1 L 497.8 388.6 L 494.1 389.3 L 493.8 402.7 L 500.3 422.9 L 510.9 460.5 L 530.1 499.6 L 553.6 558.0 L 568.3 598.4 L 585.1 660.9 L 587.4 690.4 L 589.0 697.2 L 593.6 708.7 L 599.6 717.5 L 601.7 720.5 L 609.8 730.8 L 616.0 741.0 L 621.3 751.3 L 623.9 754.1 L 537.5 754.1 L 536.6 752.6 L 534.7 748.8 L 534.3 744.2 L 534.5 742.8 L 535.8 737.2 L 537.3 734.2 L 539.1 728.2 L 538.9 726.6 L 536.5 722.2 L 534.8 720.7 L 533.3 720.3 L 525.8 719.6 L 524.4 718.6 L 522.7 718.0 L 522.2 717.4 L 521.0 714.4 L 521.2 712.1 L 521.9 709.6 L 522.7 708.6 L 525.9 701.2 L 526.6 699.1 L 527.7 693.9 L 527.3 691.1 L 524.8 686.3 L 523.6 681.0 L 523.6 677.6 L 524.3 675.0 L 527.8 666.3 L 529.5 661.3 L 530.3 657.6 L 530.6 652.6 L 530.3 645.1 L 529.5 635.8 L 528.7 630.8 L 527.1 622.4 L 523.4 606.0 L 514.7 573.2 L 508.7 553.4 L 505.4 544.7 L 502.2 534.3 L 491.7 504.2 L 488.9 494.4 L 474.7 449.5 L 467.1 430.3 L 463.5 422.4 L 460.6 417.2 L 452.8 404.7 L 442.4 388.8 L 434.0 374.9 L 412.1 342.9 L 407.3 336.7 L 391.0 317.5 L 375.6 296.4 L 366.6 282.9 L 360.4 274.7 L 352.1 264.5 L 341.3 251.4 L 333.1 242.8 L 326.5 237.1 L 320.7 232.7 L 315.4 229.1 L 310.8 226.4 L 306.6 223.3 L 304.9 222.7 L 302.1 220.7 L 295.0 219.0 L 288.2 217.8 L 279.3 217.3 L 272.5 218.2 L 267.8 219.3 L 261.2 221.7 L 252.8 227.4 L 250.4 229.3 L 247.2 232.5 L 244.0 235.1 L 242.3 237.7 L 239.4 241.1 L 237.7 242.7 L 236.2 244.8 L 231.0 250.3 L 229.8 251.2 L 228.6 253.0 L 227.7 255.6 L 227.1 256.2 L 225.9 261.1 L 225.3 268.3 L 225.7 269.9 L 227.7 275.8 L 228.7 277.9 L 233.7 286.9 L 237.9 293.6 L 243.0 302.8 L 246.1 307.4 L 250.0 314.0 L 254.9 323.0 L 273.8 349.8 L 281.4 361.4 L 283.8 364.1 L 292.9 373.7 L 293.0 373.9 L 315.9 397.3 L 341.3 423.5 L 365.1 451.4 L 375.6 466.2 L 376.2 467.3 L 382.2 476.5 L 389.6 489.2 L 396.1 499.4 L 400.8 507.7 L 404.9 515.9 L 407.2 521.4 L 414.4 536.0 L 417.6 543.6 L 423.8 563.3 L 427.9 574.3 L 436.6 594.3 L 438.6 599.6 L 442.2 607.4 L 445.6 614.0 L 447.8 617.7 L 455.3 632.3 L 457.8 638.1 L 464.8 656.5 L 468.2 667.7 L 469.3 673.0 L 470.2 678.9 L 471.6 684.8 L 475.3 695.5 L 477.1 699.1 L 479.9 707.4 L 480.5 710.0 L 481.3 711.5 L 483.0 713.7 L 485.5 711.9 L 488.3 710.4 L 490.4 711.3 L 492.2 712.8 L 493.4 714.6 L 495.8 719.6 L 497.9 726.7 L 499.9 735.0 L 500.7 739.7 L 500.9 742.1 L 500.6 744.6 L 504.1 747.3 L 508.7 751.9 L 510.2 754.1 L 418.4 754.1 L 420.1 743.5 L 418.4 740.3 L 416.5 736.9 L 405.3 724.1 L 397.0 724.4 L 395.4 729.7 L 398.4 736.5 L 398.4 754.0 L 398.4 754.1 L 384.7 754.1 L 382.8 747.8 L 377.7 742.1 L 377.2 739.5 L 376.6 736.1 L 377.3 702.3 L 382.6 697.8 L 390.1 694.1 L 389.5 685.8 L 384.3 678.4 L 381.5 671.3 L 387.5 662.5 L 397.7 656.8 L 412.4 655.7 L 417.2 651.3 L 415.3 642.7 L 407.0 641.9 L 399.4 639.3 L 394.4 628.8 L 386.8 625.6 L 377.7 620.0 L 370.5 604.1 L 370.3 586.8 L 379.1 583.4 L 386.4 582.6 L 381.0 531.5 L 368.4 502.1 L 361.1 482.2 L 354.8 454.3 L 340.1 434.4 L 322.3 428.4 L 312.9 429.5 L 264.7 398.6 L 248.6 381.1 L 243.0 379.7 L 237.0 380.9 L 234.3 377.9 L 222.0 358.0 L 221.8 357.4 L 210.4 328.7 L 201.1 291.0 L 200.2 289.6 L 197.9 284.5 L 195.2 279.7 L 187.8 268.9 L 185.7 266.6 L 184.1 265.2 L 184.5 250.6 L 191.4 255.7 L 197.2 255.6 L 205.7 247.3 L 209.9 232.0 L 206.8 221.1 L 209.0 214.8 L 212.1 208.3 L 214.1 196.8 L 218.7 180.9 L 223.0 168.2 L 226.8 161.2 L 234.1 158.7 L 250.4 154.2 L 258.7 155.0 L 266.4 165.4 L 274.5 166.7 L 279.7 161.9 L 287.6 148.5 L 286.0 136.1 L 265.6 107.4 L 260.9 104.9 L 257.4 103.2 L 254.4 101.6 L 251.4 99.8 L 248.9 97.9 L 251.8 69.2 L 258.5 44.7 L 260.1 43.4 L 263.4 40.2 L 265.9 37.4 L 272.8 28.3 L 278.5 20.0 L 281.8 14.3 L 282.8 13.1 L 284.6 10.0 L 325.7 10.0 L 324.7 15.1 z M 745.9 743.2 L 753.7 754.1 L 714.0 754.1 L 717.6 746.6 L 732.8 742.3 L 745.9 743.2 z M 891.0 540.9 L 935.7 548.4 L 999.8 551.6 L 1000.1 552.1 L 1001.1 557.7 L 1000.9 558.8 L 1000.6 560.3 L 1002.9 573.8 L 1050.8 602.8 L 1054.2 611.6 L 1057.8 623.4 L 1065.1 628.1 L 1082.2 629.4 L 1089.0 637.1 L 1088.6 639.0 L 1078.1 651.1 L 1075.2 655.3 L 1073.5 659.2 L 1072.7 660.3 L 1069.6 669.9 L 1069.1 672.4 L 1067.3 678.2 L 1064.6 683.6 L 1063.4 685.6 L 1059.7 690.5 L 1057.2 693.6 L 1052.1 698.7 L 1049.3 700.6 L 1048.0 700.8 L 1044.8 700.6 L 1042.5 700.0 L 1040.4 699.8 L 1038.9 700.2 L 1035.6 702.5 L 1033.5 704.4 L 1031.9 706.4 L 1031.9 708.8 L 1032.3 711.3 L 1033.1 714.2 L 1034.4 716.5 L 1034.6 717.7 L 1040.8 723.4 L 1048.7 728.7 L 1052.8 730.6 L 1058.0 732.5 L 1065.5 734.4 L 1068.2 734.7 L 1071.7 735.8 L 1076.8 736.3 L 1092.6 738.5 L 1097.4 739.3 L 1105.3 741.0 L 1110.4 742.6 L 1114.5 744.2 L 1119.8 747.0 L 1124.0 749.7 L 1126.6 751.3 L 1140.7 754.1 L 1140.7 754.1 L 914.1 754.1 L 913.4 752.7 L 914.1 750.2 L 914.7 748.2 L 914.8 747.3 L 917.2 731.9 L 919.7 724.8 L 929.3 725.9 L 932.6 721.7 L 927.8 707.7 L 927.5 693.2 L 933.1 684.2 L 941.9 681.6 L 962.0 679.8 L 966.0 673.7 L 956.9 661.5 L 938.2 650.8 L 918.6 649.3 L 910.8 646.1 L 909.6 640.9 L 915.5 636.6 L 920.7 625.8 L 920.8 614.3 L 915.0 604.4 L 907.6 599.7 L 907.4 599.1 L 905.8 596.2 L 904.7 595.2 L 902.1 593.6 L 893.6 591.4 L 890.4 590.3 L 886.1 589.3 L 881.6 588.9 L 880.0 588.4 L 879.1 588.5 L 872.0 586.9 L 870.1 586.3 L 866.0 585.7 L 858.8 583.7 L 857.6 582.9 L 856.4 581.6 L 856.5 579.3 L 859.7 574.2 L 861.2 573.4 L 864.1 572.8 L 867.1 572.7 L 875.3 573.8 L 878.6 574.7 L 882.1 575.2 L 889.9 577.7 L 897.8 579.4 L 904.2 580.2 L 909.2 580.1 L 912.9 579.3 L 913.8 578.5 L 914.4 576.9 L 916.4 574.0 L 916.7 573.0 L 917.9 567.2 L 917.7 564.9 L 917.0 561.2 L 914.8 556.6 L 913.2 554.8 L 911.4 553.4 L 908.3 552.7 L 906.6 552.8 L 902.4 555.0 L 895.8 557.2 L 893.8 557.6 L 891.7 557.5 L 887.8 556.7 L 883.4 555.1 L 881.4 553.7 L 879.1 550.2 L 875.7 543.9 L 874.3 540.7 L 873.2 537.4 L 872.7 535.2 L 891.0 540.9 z M 628.7 709.0 L 630.7 711.0 L 632.1 712.5 L 634.0 717.1 L 634.0 722.7 L 633.5 728.2 L 633.1 733.3 L 632.4 738.2 L 632.1 739.8 L 631.8 742.3 L 632.4 745.9 L 628.4 741.7 L 623.4 734.8 L 620.3 727.1 L 617.2 723.6 L 613.8 721.2 L 613.6 721.1 L 615.4 718.3 L 616.9 716.0 L 617.5 714.9 L 620.9 711.4 L 622.5 709.7 L 625.0 708.7 L 628.7 709.0 z M 672.3 70.6 L 672.2 70.9 L 669.3 75.5 L 664.1 79.3 L 662.4 80.2 L 659.3 80.3 L 656.1 80.9 L 654.7 81.8 L 653.5 83.6 L 653.0 84.9 L 654.1 90.3 L 655.4 93.9 L 657.1 97.4 L 661.0 103.2 L 663.6 106.1 L 666.6 109.1 L 673.0 114.5 L 677.5 118.8 L 684.2 128.5 L 691.6 138.3 L 694.0 140.6 L 697.9 143.3 L 699.5 144.0 L 702.7 144.0 L 704.4 143.3 L 705.9 142.2 L 708.6 139.2 L 710.4 136.5 L 711.8 135.2 L 714.8 133.8 L 716.7 132.2 L 717.6 130.0 L 718.0 128.2 L 717.8 126.5 L 716.9 122.6 L 714.9 118.1 L 713.1 115.5 L 711.6 112.8 L 709.7 108.5 L 708.3 103.8 L 708.2 101.4 L 708.5 100.1 L 718.0 107.9 L 763.3 160.5 L 764.8 162.5 L 764.1 163.0 L 763.1 164.1 L 763.0 166.5 L 763.5 171.3 L 764.2 173.8 L 764.2 175.5 L 763.9 178.1 L 762.8 180.5 L 759.2 184.1 L 755.1 185.7 L 750.6 186.4 L 748.5 186.0 L 741.0 182.8 L 739.7 182.1 L 735.9 179.0 L 733.3 176.0 L 731.3 174.4 L 728.1 172.5 L 726.2 171.8 L 722.1 169.3 L 719.1 168.0 L 710.5 163.0 L 701.0 161.8 L 699.2 162.4 L 697.3 164.4 L 696.6 166.6 L 696.4 168.9 L 696.9 172.7 L 698.2 177.3 L 702.5 185.3 L 704.3 187.5 L 710.8 197.8 L 714.6 204.8 L 718.1 209.2 L 729.4 222.1 L 734.5 229.5 L 738.2 236.2 L 738.7 238.1 L 739.7 246.7 L 741.1 250.1 L 742.9 252.6 L 749.1 259.8 L 752.7 262.5 L 759.0 265.3 L 759.2 265.3 L 760.9 266.5 L 762.8 268.3 L 757.3 268.3 L 752.3 268.0 L 750.5 267.8 L 748.9 267.2 L 747.5 267.0 L 745.0 266.9 L 742.9 267.0 L 741.1 267.1 L 738.9 266.9 L 737.4 266.7 L 735.9 266.2 L 734.1 265.6 L 733.1 265.3 L 731.7 265.1 L 729.3 264.4 L 727.1 263.7 L 724.0 262.5 L 718.6 260.2 L 716.3 258.9 L 710.8 254.6 L 698.2 243.9 L 691.7 238.2 L 686.7 233.0 L 682.8 228.2 L 679.6 223.4 L 676.6 217.0 L 676.5 216.1 L 671.4 205.4 L 669.5 199.5 L 667.5 191.7 L 666.8 187.8 L 661.4 176.2 L 653.1 142.0 L 653.1 142.0 L 650.4 132.7 L 649.1 130.1 L 647.2 124.0 L 646.0 118.6 L 645.4 114.5 L 631.9 80.3 L 622.0 61.1 L 619.1 49.9 L 622.2 46.7 L 627.3 46.5 L 672.3 70.6 z M 202.0 218.2 L 206.8 221.1 L 209.9 232.0 L 205.7 247.3 L 197.2 255.6 L 191.4 255.7 L 184.5 250.6 L 193.5 217.5 L 202.0 218.2 z M 1199.4 422.0 L 1207.3 423.0 L 1210.0 422.9 L 1210.0 435.3 L 1205.8 434.1 L 1197.9 428.9 L 1191.8 426.6 L 1185.4 423.4 L 1187.5 422.8 L 1195.2 421.8 L 1199.4 422.0 z M 1210.0 388.8 L 1206.9 385.8 L 1204.5 384.6 L 1202.1 382.3 L 1201.2 381.1 L 1200.0 378.3 L 1199.2 375.7 L 1199.0 373.4 L 1199.4 371.2 L 1200.2 369.2 L 1201.4 367.4 L 1203.4 365.1 L 1206.0 362.7 L 1208.8 360.9 L 1210.0 359.7 L 1210.0 388.8 z M 1084.4 211.9 L 1121.2 232.7 L 1175.0 270.7 L 1210.0 294.9 L 1210.0 323.0 L 1206.7 321.4 L 1192.6 315.6 L 1189.5 314.0 L 1179.0 309.6 L 1168.1 306.8 L 1160.7 305.8 L 1154.3 305.6 L 1149.1 306.4 L 1145.6 307.5 L 1143.7 308.6 L 1142.3 309.7 L 1139.7 313.2 L 1139.0 315.7 L 1138.8 317.2 L 1139.6 319.5 L 1140.5 323.5 L 1140.5 324.6 L 1140.0 327.1 L 1139.0 328.5 L 1138.3 330.6 L 1136.8 332.2 L 1134.7 333.9 L 1132.2 335.3 L 1128.7 335.9 L 1126.4 335.8 L 1124.0 335.1 L 1120.5 333.7 L 1118.4 332.5 L 1110.9 329.8 L 1108.5 328.4 L 1104.8 325.7 L 1101.7 322.2 L 1099.5 318.3 L 1099.3 316.8 L 1099.4 315.0 L 1101.3 310.1 L 1102.1 309.1 L 1106.0 306.2 L 1109.0 305.3 L 1115.1 304.2 L 1117.1 303.5 L 1122.7 301.4 L 1123.8 300.4 L 1124.5 298.7 L 1124.7 297.7 L 1124.5 294.4 L 1124.1 293.4 L 1123.0 292.0 L 1120.8 290.0 L 1110.6 283.8 L 1101.0 278.8 L 1096.4 276.8 L 1088.0 273.8 L 1077.7 271.0 L 1071.8 270.1 L 1068.8 270.2 L 1067.8 270.9 L 1067.0 272.4 L 1067.0 273.5 L 1067.0 283.9 L 1067.5 287.0 L 1067.2 291.7 L 1066.6 296.2 L 1065.5 300.6 L 1064.7 301.6 L 1062.6 303.5 L 1060.1 304.7 L 1057.9 305.2 L 1054.6 305.3 L 1051.8 304.9 L 1045.3 302.8 L 1043.7 301.8 L 1040.8 299.5 L 1037.6 297.5 L 1034.4 295.8 L 1031.1 294.3 L 1025.9 291.2 L 1024.0 290.5 L 1021.0 288.8 L 1018.7 288.1 L 1013.5 287.4 L 1009.2 287.1 L 1004.9 287.2 L 1001.4 287.9 L 999.5 288.9 L 996.0 291.2 L 994.6 292.4 L 990.9 297.3 L 988.7 300.9 L 986.5 307.7 L 984.0 303.3 L 966.4 289.6 L 964.4 288.2 L 964.7 287.0 L 964.3 284.5 L 962.9 281.3 L 961.4 279.0 L 961.3 277.5 L 958.3 271.8 L 954.1 264.6 L 951.0 259.9 L 947.4 255.1 L 947.1 254.8 L 972.2 254.0 L 981.6 254.0 L 980.8 244.6 L 971.7 232.6 L 970.0 224.6 L 972.6 225.2 L 974.7 225.1 L 975.7 224.7 L 977.0 223.5 L 980.5 219.0 L 984.3 215.8 L 985.7 215.0 L 986.7 214.8 L 989.2 214.9 L 992.2 215.8 L 991.2 217.9 L 990.5 221.8 L 989.3 225.4 L 987.7 228.4 L 986.8 230.4 L 986.4 233.2 L 987.9 235.2 L 991.0 238.1 L 992.3 239.0 L 995.5 240.4 L 997.7 241.0 L 1001.5 240.9 L 1010.8 238.0 L 1015.6 235.8 L 1019.1 234.7 L 1024.5 233.9 L 1028.5 233.9 L 1037.4 234.7 L 1045.3 236.9 L 1054.1 241.0 L 1057.7 242.3 L 1061.8 243.3 L 1065.2 243.7 L 1067.1 243.7 L 1069.4 243.4 L 1072.2 242.2 L 1075.3 239.0 L 1075.3 236.6 L 1074.7 233.3 L 1073.4 230.8 L 1071.5 228.0 L 1066.8 218.9 L 1066.9 216.2 L 1066.6 214.7 L 1065.0 211.5 L 1062.5 207.9 L 1060.3 206.2 L 1084.4 211.9 z M 286.6 226.8 L 291.7 228.0 L 294.7 229.3 L 300.1 233.2 L 302.4 234.2 L 307.4 237.4 L 310.5 238.8 L 317.0 243.6 L 319.4 245.8 L 323.4 250.6 L 329.4 258.2 L 331.2 260.9 L 339.4 269.9 L 350.5 281.2 L 367.8 300.8 L 377.1 310.3 L 380.2 314.0 L 385.6 321.8 L 389.5 328.2 L 392.2 331.4 L 394.4 334.7 L 398.1 339.0 L 401.7 344.2 L 406.5 352.5 L 412.2 360.9 L 438.2 398.9 L 451.2 435.3 L 480.0 491.7 L 492.0 521.9 L 507.0 585.1 L 516.8 626.1 L 517.6 672.8 L 508.7 694.6 L 499.8 702.0 L 497.7 699.2 L 497.2 698.1 L 496.6 695.6 L 495.9 691.4 L 495.2 688.7 L 492.3 681.8 L 488.1 676.0 L 484.5 670.0 L 480.5 662.4 L 476.2 655.2 L 473.4 651.3 L 468.9 642.9 L 466.2 636.9 L 462.4 630.3 L 460.9 627.9 L 456.4 614.4 L 430.3 559.1 L 406.8 502.4 L 375.9 450.6 L 337.9 405.5 L 309.5 378.8 L 282.0 347.6 L 252.0 294.8 L 251.9 294.1 L 249.8 291.1 L 238.1 269.6 L 236.9 266.2 L 237.1 262.8 L 237.9 261.0 L 240.7 257.9 L 249.9 249.7 L 253.8 244.8 L 264.1 233.3 L 266.0 231.4 L 269.8 228.9 L 276.6 226.9 L 280.2 226.4 L 283.3 226.3 L 286.6 226.8 z M 304.8 300.5 L 303.1 302.1 L 301.8 303.7 L 299.8 308.8 L 299.6 310.9 L 299.7 313.1 L 300.5 316.1 L 301.6 318.4 L 303.5 321.7 L 306.8 326.7 L 315.0 337.6 L 318.6 341.7 L 332.9 356.2 L 337.4 361.7 L 343.8 370.6 L 351.2 379.6 L 354.9 384.4 L 358.3 389.6 L 360.7 394.2 L 369.9 409.9 L 374.3 418.3 L 376.3 420.6 L 377.4 421.1 L 378.3 420.4 L 379.2 418.2 L 379.1 417.0 L 377.1 410.2 L 373.0 401.5 L 364.7 387.0 L 359.3 378.8 L 353.9 371.6 L 349.6 365.1 L 344.0 358.6 L 342.0 355.6 L 339.3 350.3 L 334.6 339.8 L 333.9 336.5 L 334.3 335.0 L 335.1 333.7 L 337.6 332.3 L 339.7 332.6 L 343.7 335.3 L 345.7 337.1 L 352.6 343.9 L 357.3 348.9 L 364.7 355.8 L 377.3 366.7 L 384.2 373.5 L 388.3 377.9 L 390.4 381.2 L 395.7 393.1 L 402.0 405.0 L 407.9 415.5 L 422.2 438.2 L 424.6 442.8 L 426.6 445.8 L 427.5 446.6 L 428.3 446.5 L 429.0 445.8 L 429.6 444.0 L 429.7 441.9 L 429.3 439.0 L 427.6 432.7 L 425.2 426.2 L 423.8 423.0 L 418.1 411.8 L 417.3 409.4 L 414.3 403.1 L 408.6 392.6 L 402.7 383.9 L 398.9 379.1 L 385.0 362.5 L 375.6 352.3 L 366.5 341.0 L 361.1 335.1 L 356.9 331.2 L 345.8 321.4 L 342.5 319.1 L 337.0 315.7 L 334.1 313.6 L 330.1 310.2 L 326.5 307.7 L 323.6 305.2 L 317.9 301.1 L 316.4 300.6 L 312.1 299.4 L 308.2 299.2 L 304.8 300.5 z M 1056.1 552.6 L 1059.8 554.8 L 1066.6 559.8 L 1069.8 562.9 L 1073.5 565.0 L 1076.7 566.4 L 1079.0 566.8 L 1081.7 566.8 L 1083.0 566.0 L 1084.1 563.1 L 1083.9 560.7 L 1084.3 559.8 L 1086.3 558.0 L 1087.6 557.9 L 1090.9 559.0 L 1092.1 559.7 L 1093.1 561.0 L 1096.7 566.1 L 1099.6 569.4 L 1102.0 571.5 L 1109.1 576.8 L 1115.0 581.6 L 1120.7 585.6 L 1130.8 592.3 L 1138.7 595.5 L 1142.6 596.7 L 1144.4 597.9 L 1148.3 602.5 L 1152.4 607.6 L 1155.2 609.9 L 1156.2 610.1 L 1157.9 611.3 L 1161.5 614.2 L 1169.1 617.0 L 1176.9 619.4 L 1179.4 619.6 L 1181.7 619.2 L 1185.9 617.6 L 1191.5 614.0 L 1193.1 612.3 L 1197.5 608.5 L 1199.0 607.5 L 1202.0 606.9 L 1207.0 606.8 L 1210.0 607.1 L 1210.0 689.4 L 1200.8 694.4 L 1195.8 695.0 L 1191.0 695.1 L 1185.7 694.8 L 1176.5 692.4 L 1174.1 690.1 L 1172.3 688.9 L 1169.5 683.5 L 1165.8 673.9 L 1164.8 670.4 L 1164.4 668.1 L 1164.5 661.0 L 1164.1 657.4 L 1162.4 647.9 L 1161.7 645.4 L 1160.5 642.4 L 1156.6 635.8 L 1154.5 630.9 L 1151.1 625.0 L 1148.1 620.9 L 1144.7 617.1 L 1142.9 615.4 L 1135.4 609.6 L 1127.8 605.1 L 1123.4 602.8 L 1114.0 599.0 L 1111.9 598.3 L 1109.3 597.9 L 1105.3 598.0 L 1101.8 597.6 L 1097.6 596.4 L 1096.7 596.1 L 1094.4 594.5 L 1088.4 589.4 L 1086.8 588.4 L 1084.8 587.7 L 1081.4 587.0 L 1079.5 587.2 L 1078.0 587.5 L 1075.9 589.0 L 1074.3 592.0 L 1069.9 597.5 L 1069.4 598.0 L 1066.6 599.3 L 1065.3 599.7 L 1061.7 599.4 L 1059.1 598.1 L 1057.5 596.6 L 1057.1 595.0 L 1054.6 589.9 L 1053.0 586.4 L 1051.5 580.9 L 1050.3 573.7 L 1049.5 563.5 L 1049.7 560.8 L 1049.4 558.7 L 1049.7 553.6 L 1051.1 551.3 L 1056.1 552.6 z M 1077.7 271.0 L 1088.0 273.8 L 1096.4 276.8 L 1101.0 278.8 L 1110.6 283.8 L 1120.8 290.0 L 1123.0 292.0 L 1124.1 293.4 L 1124.5 294.4 L 1124.7 297.7 L 1124.5 298.7 L 1123.8 300.4 L 1122.7 301.4 L 1117.1 303.5 L 1115.1 304.2 L 1109.0 305.3 L 1106.0 306.2 L 1102.1 309.1 L 1101.3 310.1 L 1099.4 315.0 L 1099.3 316.8 L 1099.5 318.3 L 1101.7 322.2 L 1104.8 325.7 L 1108.5 328.4 L 1110.9 329.8 L 1118.4 332.5 L 1120.5 333.7 L 1124.0 335.1 L 1126.4 335.8 L 1128.7 335.9 L 1132.2 335.3 L 1134.7 333.9 L 1136.8 332.2 L 1138.3 330.6 L 1139.0 328.5 L 1140.0 327.1 L 1140.5 324.6 L 1140.5 323.5 L 1139.6 319.5 L 1138.8 317.2 L 1139.0 315.7 L 1139.7 313.2 L 1142.3 309.7 L 1143.7 308.6 L 1145.6 307.5 L 1149.1 306.4 L 1154.3 305.6 L 1160.7 305.8 L 1168.1 306.8 L 1179.0 309.6 L 1189.5 314.0 L 1192.6 315.6 L 1206.7 321.4 L 1210.0 323.0 L 1210.0 359.7 L 1208.8 360.9 L 1206.0 362.7 L 1203.4 365.1 L 1201.4 367.4 L 1200.2 369.2 L 1199.4 371.2 L 1199.0 373.4 L 1199.2 375.7 L 1200.0 378.3 L 1201.2 381.1 L 1202.1 382.3 L 1204.5 384.6 L 1206.9 385.8 L 1210.0 388.8 L 1210.0 422.9 L 1207.3 423.0 L 1199.4 422.0 L 1195.2 421.8 L 1187.5 422.8 L 1185.4 423.4 L 1181.4 424.6 L 1175.2 428.0 L 1175.1 428.1 L 1171.8 430.5 L 1170.5 431.9 L 1169.6 433.8 L 1169.5 435.6 L 1170.0 438.5 L 1170.7 440.5 L 1172.1 443.4 L 1173.4 445.1 L 1175.9 447.4 L 1176.8 448.0 L 1184.0 450.8 L 1191.7 452.5 L 1199.5 452.8 L 1210.0 452.9 L 1210.0 534.7 L 1209.8 534.8 L 1204.8 536.0 L 1202.0 537.0 L 1199.3 538.4 L 1191.4 541.2 L 1186.9 542.2 L 1183.5 542.4 L 1182.9 542.2 L 1181.9 542.6 L 1178.7 539.8 L 1177.1 538.1 L 1170.6 528.1 L 1166.8 523.2 L 1164.4 520.5 L 1162.7 519.2 L 1159.3 517.2 L 1154.2 515.2 L 1151.1 514.6 L 1147.3 514.8 L 1142.0 516.0 L 1136.9 518.7 L 1128.8 522.5 L 1123.3 524.4 L 1121.1 524.8 L 1119.0 524.7 L 1115.6 524.3 L 1109.0 521.9 L 1096.9 516.4 L 1092.4 514.9 L 1086.1 511.9 L 1084.1 510.7 L 1080.4 508.2 L 1076.0 506.3 L 1072.7 505.5 L 1070.4 505.4 L 1066.9 506.2 L 1065.5 506.8 L 1064.1 507.8 L 1061.1 511.0 L 1060.3 514.9 L 1060.5 525.2 L 1061.2 531.9 L 1060.9 536.1 L 1059.8 540.0 L 1058.3 542.5 L 1052.6 547.7 L 1051.1 550.0 L 1051.1 551.3 L 1049.7 553.6 L 1049.4 558.7 L 1049.7 560.8 L 1049.5 563.5 L 1050.3 573.7 L 1051.5 580.9 L 1053.0 586.4 L 1054.6 589.9 L 1057.1 595.0 L 1057.5 596.6 L 1059.1 598.1 L 1061.7 599.4 L 1065.3 599.7 L 1066.6 599.3 L 1069.4 598.0 L 1069.9 597.5 L 1074.3 592.0 L 1075.9 589.0 L 1078.0 587.5 L 1079.5 587.2 L 1081.4 587.0 L 1084.8 587.7 L 1086.8 588.4 L 1088.4 589.4 L 1094.4 594.5 L 1096.7 596.1 L 1097.6 596.4 L 1101.8 597.6 L 1105.3 598.0 L 1109.3 597.9 L 1111.9 598.3 L 1114.0 599.0 L 1123.4 602.8 L 1127.8 605.1 L 1135.4 609.6 L 1142.9 615.4 L 1144.7 617.1 L 1148.1 620.9 L 1151.1 625.0 L 1154.5 630.9 L 1156.6 635.8 L 1160.5 642.4 L 1161.7 645.4 L 1162.4 647.9 L 1164.1 657.4 L 1164.5 661.0 L 1164.4 668.1 L 1164.8 670.4 L 1165.8 673.9 L 1169.5 683.5 L 1164.0 688.3 L 1162.2 690.7 L 1158.2 681.3 L 1153.3 680.1 L 1121.7 685.9 L 1118.8 687.4 L 1116.5 689.5 L 1115.3 691.4 L 1114.8 694.3 L 1114.5 700.7 L 1116.0 707.7 L 1117.1 710.7 L 1125.6 719.4 L 1132.0 725.3 L 1135.7 728.2 L 1140.7 731.5 L 1144.4 733.7 L 1149.7 736.0 L 1159.1 739.4 L 1162.7 740.9 L 1167.7 743.4 L 1167.8 743.5 L 1176.4 753.8 L 1176.6 754.1 L 1140.7 754.1 L 1140.7 754.1 L 1126.6 751.3 L 1124.0 749.7 L 1119.8 747.0 L 1114.5 744.2 L 1110.4 742.6 L 1105.3 741.0 L 1097.4 739.3 L 1092.6 738.5 L 1076.8 736.3 L 1071.7 735.8 L 1068.2 734.7 L 1065.5 734.4 L 1058.0 732.5 L 1052.8 730.6 L 1048.7 728.7 L 1040.8 723.4 L 1034.6 717.7 L 1034.4 716.5 L 1033.1 714.2 L 1032.3 711.3 L 1031.9 708.8 L 1031.9 706.4 L 1033.5 704.4 L 1035.6 702.5 L 1038.9 700.2 L 1040.4 699.8 L 1042.5 700.0 L 1044.8 700.6 L 1048.0 700.8 L 1049.3 700.6 L 1052.1 698.7 L 1057.2 693.6 L 1059.7 690.5 L 1063.4 685.6 L 1064.6 683.6 L 1067.3 678.2 L 1069.1 672.4 L 1069.6 669.9 L 1072.7 660.3 L 1073.5 659.2 L 1075.2 655.3 L 1078.1 651.1 L 1088.6 639.0 L 1089.0 637.1 L 1082.2 629.4 L 1065.1 628.1 L 1057.8 623.4 L 1054.2 611.6 L 1050.8 602.8 L 1002.9 573.8 L 1000.6 560.3 L 1000.9 558.8 L 1001.1 557.7 L 1000.1 552.1 L 999.8 551.6 L 997.7 548.0 L 994.8 544.7 L 984.0 535.7 L 982.3 534.1 L 979.4 530.4 L 978.6 528.8 L 978.3 526.9 L 978.3 524.5 L 979.5 522.9 L 980.7 521.8 L 985.7 519.2 L 993.1 516.4 L 996.6 513.7 L 997.0 513.4 L 997.4 512.5 L 997.2 509.8 L 993.9 504.4 L 988.5 498.0 L 985.2 494.9 L 981.8 492.4 L 975.0 488.1 L 964.8 483.4 L 960.6 480.8 L 951.8 474.3 L 942.0 468.2 L 935.4 463.2 L 929.9 457.5 L 926.9 454.5 L 924.8 451.8 L 923.8 450.0 L 923.5 447.8 L 921.3 439.0 L 919.2 434.6 L 917.3 431.6 L 905.7 416.7 L 903.6 413.5 L 900.5 409.6 L 899.2 407.1 L 897.4 404.5 L 895.2 399.3 L 895.4 397.6 L 896.9 392.6 L 898.8 389.6 L 900.8 387.4 L 902.9 385.9 L 906.4 383.8 L 914.9 380.4 L 917.7 379.6 L 927.4 375.2 L 934.7 372.9 L 942.1 371.0 L 946.3 370.2 L 953.4 369.6 L 962.9 369.4 L 970.3 369.9 L 973.7 370.5 L 976.4 373.6 L 977.5 375.7 L 978.1 379.0 L 977.8 383.1 L 976.8 388.7 L 976.5 401.9 L 976.7 405.8 L 978.5 412.2 L 981.4 418.0 L 986.4 425.9 L 991.2 432.4 L 993.8 438.0 L 994.1 439.3 L 997.4 446.2 L 999.4 452.7 L 1000.1 456.1 L 1002.1 461.2 L 1002.8 464.2 L 1003.7 466.4 L 1004.1 467.3 L 1005.4 472.2 L 1006.1 481.5 L 1006.7 485.8 L 1008.0 489.9 L 1011.5 495.9 L 1019.1 505.5 L 1023.0 511.6 L 1023.6 512.8 L 1024.6 516.2 L 1025.1 520.1 L 1024.7 522.5 L 1024.7 527.0 L 1025.1 529.0 L 1027.3 534.1 L 1027.9 535.0 L 1031.1 537.3 L 1039.1 539.9 L 1047.9 529.6 L 1048.7 517.2 L 1043.2 497.7 L 1046.2 480.3 L 1055.5 472.6 L 1075.1 467.6 L 1108.3 462.0 L 1114.6 463.7 L 1118.3 459.3 L 1115.1 453.5 L 1096.6 442.5 L 1090.2 433.6 L 1086.9 424.5 L 1086.9 423.5 L 1086.8 414.3 L 1084.3 410.3 L 1080.7 402.9 L 1076.5 393.4 L 1075.3 391.8 L 1073.8 388.8 L 1072.1 385.7 L 1070.2 381.7 L 1065.9 371.8 L 1063.6 367.6 L 1060.4 362.8 L 1052.9 353.5 L 1049.0 349.4 L 1044.3 345.0 L 1041.5 343.1 L 1034.5 339.6 L 1031.2 338.3 L 1024.9 336.3 L 1020.7 335.8 L 1017.6 335.9 L 1009.6 336.5 L 1006.6 337.0 L 996.9 325.8 L 986.5 307.7 L 988.7 300.9 L 990.9 297.3 L 994.6 292.4 L 996.0 291.2 L 999.5 288.9 L 1001.4 287.9 L 1004.9 287.2 L 1009.2 287.1 L 1013.5 287.4 L 1018.7 288.1 L 1021.0 288.8 L 1024.0 290.5 L 1025.9 291.2 L 1031.1 294.3 L 1034.4 295.8 L 1037.6 297.5 L 1040.8 299.5 L 1043.7 301.8 L 1045.3 302.8 L 1051.8 304.9 L 1054.6 305.3 L 1057.9 305.2 L 1060.1 304.7 L 1062.6 303.5 L 1064.7 301.6 L 1065.5 300.6 L 1066.6 296.2 L 1067.2 291.7 L 1067.5 287.0 L 1067.0 283.9 L 1067.0 273.5 L 1067.0 272.4 L 1067.8 270.9 L 1068.8 270.2 L 1071.8 270.1 L 1077.7 271.0 z M 370.5 604.1 L 377.7 620.0 L 386.8 625.6 L 394.4 628.8 L 399.4 639.3 L 407.0 641.9 L 415.3 642.7 L 417.2 651.3 L 412.4 655.7 L 397.7 656.8 L 387.5 662.5 L 381.5 671.3 L 384.3 678.4 L 389.5 685.8 L 390.1 694.1 L 382.6 697.8 L 377.3 702.3 L 376.6 736.1 L 377.2 739.5 L 377.7 742.1 L 382.8 747.8 L 384.7 754.1 L 352.7 754.1 L 355.8 726.2 L 355.4 723.9 L 353.1 717.8 L 352.1 715.7 L 353.0 702.0 L 354.8 683.5 L 357.0 665.7 L 356.8 661.6 L 354.2 656.3 L 345.0 659.1 L 337.6 662.3 L 330.0 660.2 L 324.1 649.8 L 327.5 633.0 L 338.5 635.2 L 344.9 637.7 L 353.9 633.5 L 356.0 619.7 L 355.7 589.5 L 358.3 589.0 L 370.3 586.8 L 370.5 604.1 z M 416.5 736.9 L 418.4 740.3 L 420.1 743.5 L 418.4 754.1 L 398.4 754.1 L 398.4 754.0 L 398.4 736.5 L 395.4 729.7 L 397.0 724.4 L 405.3 724.1 L 416.5 736.9 z M 966.4 289.6 L 984.0 303.3 L 986.5 307.7 L 996.9 325.8 L 1006.6 337.0 L 1012.8 344.2 L 1066.9 384.6 L 1073.8 388.8 L 1075.3 391.8 L 1076.5 393.4 L 1080.7 402.9 L 1084.3 410.3 L 1086.8 414.3 L 1086.9 423.5 L 1016.7 370.3 L 974.8 331.5 L 974.7 328.7 L 974.1 326.3 L 972.5 322.9 L 964.6 308.6 L 961.6 301.1 L 961.2 298.8 L 961.4 296.1 L 961.9 294.0 L 964.3 288.6 L 964.4 288.2 L 966.4 289.6 z M 847.9 501.8 L 851.2 503.0 L 862.0 505.3 L 864.3 506.0 L 867.1 508.0 L 869.5 510.7 L 871.0 513.1 L 872.7 517.0 L 873.1 518.7 L 873.3 521.2 L 872.6 527.2 L 872.3 533.6 L 872.7 535.2 L 873.2 537.4 L 874.3 540.7 L 875.7 543.9 L 879.1 550.2 L 881.4 553.7 L 883.4 555.1 L 887.8 556.7 L 891.7 557.5 L 893.8 557.6 L 895.8 557.2 L 902.4 555.0 L 906.6 552.8 L 908.3 552.7 L 911.4 553.4 L 913.2 554.8 L 914.8 556.6 L 917.0 561.2 L 917.7 564.9 L 917.9 567.2 L 916.7 573.0 L 916.4 574.0 L 914.4 576.9 L 913.8 578.5 L 912.9 579.3 L 909.2 580.1 L 904.2 580.2 L 897.8 579.4 L 889.9 577.7 L 882.1 575.2 L 878.6 574.7 L 875.3 573.8 L 867.1 572.7 L 864.1 572.8 L 861.2 573.4 L 859.7 574.2 L 856.5 579.3 L 856.4 581.6 L 857.6 582.9 L 858.8 583.7 L 866.0 585.7 L 870.1 586.3 L 872.0 586.9 L 879.1 588.5 L 880.0 588.4 L 881.6 588.9 L 886.1 589.3 L 890.4 590.3 L 893.6 591.4 L 902.1 593.6 L 904.7 595.2 L 905.8 596.2 L 907.4 599.1 L 907.6 599.7 L 915.0 604.4 L 920.8 614.3 L 920.7 625.8 L 915.5 636.6 L 909.6 640.9 L 910.8 646.1 L 918.6 649.3 L 938.2 650.8 L 956.9 661.5 L 966.0 673.7 L 962.0 679.8 L 941.9 681.6 L 933.1 684.2 L 927.5 693.2 L 927.8 707.7 L 932.6 721.7 L 929.3 725.9 L 919.7 724.8 L 907.0 703.5 L 901.5 694.6 L 895.5 693.2 L 873.8 699.1 L 868.1 704.2 L 868.4 712.3 L 882.7 746.6 L 883.1 747.5 L 883.5 749.6 L 884.2 754.1 L 753.7 754.1 L 745.9 743.2 L 732.8 742.3 L 717.6 746.6 L 714.0 754.1 L 697.7 754.1 L 696.7 746.1 L 696.4 743.5 L 696.3 742.7 L 693.0 720.0 L 682.9 712.9 L 672.4 715.6 L 658.2 719.5 L 650.1 712.7 L 640.2 690.5 L 638.5 683.8 L 624.3 625.9 L 613.2 603.9 L 597.1 555.0 L 601.1 543.6 L 609.3 537.9 L 619.2 536.8 L 632.5 542.3 L 664.5 583.0 L 700.4 622.7 L 710.0 629.6 L 721.1 630.1 L 725.5 631.7 L 733.7 630.4 L 739.6 623.9 L 740.3 623.1 L 739.8 608.4 L 746.2 599.8 L 759.3 596.3 L 790.5 617.4 L 809.0 622.7 L 822.7 621.0 L 828.7 617.1 L 829.9 606.4 L 830.6 598.1 L 828.3 587.0 L 827.4 584.4 L 824.5 579.3 L 822.8 576.9 L 821.1 575.3 L 817.5 572.6 L 812.1 569.9 L 804.0 565.0 L 790.2 554.9 L 783.1 549.0 L 778.7 545.7 L 774.9 543.2 L 772.2 541.6 L 761.6 534.2 L 759.2 531.5 L 758.4 530.1 L 757.9 528.2 L 757.8 523.1 L 757.5 521.8 L 757.7 519.7 L 758.2 517.8 L 759.2 516.7 L 764.3 513.6 L 768.7 512.9 L 770.1 512.8 L 800.5 528.9 L 816.5 537.2 L 818.5 537.2 L 819.4 536.7 L 823.6 532.1 L 824.0 531.5 L 824.2 528.1 L 824.0 524.5 L 823.1 515.7 L 822.4 512.9 L 822.2 509.7 L 822.5 507.9 L 823.7 504.3 L 824.7 502.9 L 826.1 501.6 L 829.1 500.0 L 833.5 499.3 L 837.9 499.1 L 847.9 501.8 z M 312.1 299.4 L 316.4 300.6 L 317.9 301.1 L 323.6 305.2 L 326.5 307.7 L 330.1 310.2 L 334.1 313.6 L 337.0 315.7 L 342.5 319.1 L 345.8 321.4 L 356.9 331.2 L 361.1 335.1 L 366.5 341.0 L 375.6 352.3 L 385.0 362.5 L 398.9 379.1 L 402.7 383.9 L 408.6 392.6 L 414.3 403.1 L 417.3 409.4 L 418.1 411.8 L 423.8 423.0 L 425.2 426.2 L 427.6 432.7 L 429.3 439.0 L 429.7 441.9 L 429.6 444.0 L 429.0 445.8 L 428.3 446.5 L 427.5 446.6 L 426.6 445.8 L 424.6 442.8 L 422.2 438.2 L 407.9 415.5 L 402.0 405.0 L 395.7 393.1 L 390.4 381.2 L 388.3 377.9 L 384.2 373.5 L 377.3 366.7 L 364.7 355.8 L 357.3 348.9 L 352.6 343.9 L 345.7 337.1 L 343.7 335.3 L 339.7 332.6 L 337.6 332.3 L 335.1 333.7 L 334.3 335.0 L 333.9 336.5 L 334.6 339.8 L 339.3 350.3 L 342.0 355.6 L 344.0 358.6 L 349.6 365.1 L 353.9 371.6 L 359.3 378.8 L 364.7 387.0 L 373.0 401.5 L 377.1 410.2 L 379.1 417.0 L 379.2 418.2 L 378.3 420.4 L 377.4 421.1 L 376.3 420.6 L 374.3 418.3 L 369.9 409.9 L 360.7 394.2 L 358.3 389.6 L 354.9 384.4 L 351.2 379.6 L 343.8 370.6 L 337.4 361.7 L 332.9 356.2 L 318.6 341.7 L 315.0 337.6 L 306.8 326.7 L 303.5 321.7 L 301.6 318.4 L 300.5 316.1 L 299.7 313.1 L 299.6 310.9 L 299.8 308.8 L 301.8 303.7 L 303.1 302.1 L 304.8 300.5 L 308.2 299.2 L 312.1 299.4 z M 499.9 389.8 L 503.9 394.7 L 506.0 397.9 L 507.1 400.0 L 508.6 405.2 L 509.8 407.5 L 514.3 412.5 L 516.4 414.6 L 520.9 417.9 L 522.1 419.3 L 526.3 426.0 L 527.2 430.1 L 527.6 431.2 L 530.7 436.7 L 532.3 438.3 L 534.7 439.8 L 541.5 442.2 L 543.6 443.7 L 547.6 445.4 L 550.2 447.2 L 549.3 448.7 L 547.7 454.4 L 547.0 464.6 L 553.6 483.1 L 558.9 501.0 L 582.2 506.9 L 572.0 520.7 L 568.8 554.5 L 597.1 555.0 L 589.8 601.3 L 598.9 601.8 L 606.0 625.6 L 611.8 666.7 L 613.6 695.9 L 614.4 699.6 L 615.0 701.3 L 615.8 704.4 L 616.7 705.7 L 611.4 712.6 L 607.3 718.7 L 603.6 717.7 L 599.6 717.5 L 593.6 708.7 L 589.0 697.2 L 587.4 690.4 L 585.1 660.9 L 568.3 598.4 L 553.6 558.0 L 530.1 499.6 L 510.9 460.5 L 500.3 422.9 L 493.8 402.7 L 494.1 389.3 L 497.8 388.6 L 499.9 389.8 z M 131.7 510.3 L 145.0 515.7 L 158.7 522.8 L 170.7 529.9 L 178.6 537.1 L 183.6 542.7 L 190.2 553.7 L 194.3 556.8 L 195.9 557.8 L 201.6 560.0 L 205.4 560.9 L 212.8 562.1 L 218.0 562.7 L 219.9 562.7 L 223.6 562.0 L 228.7 559.9 L 237.8 553.7 L 239.6 552.9 L 244.3 549.6 L 247.1 547.4 L 250.6 542.8 L 254.7 536.8 L 257.4 534.0 L 260.9 530.9 L 262.3 529.9 L 275.4 525.5 L 279.7 524.5 L 281.9 524.6 L 282.8 524.9 L 285.2 527.0 L 287.0 529.5 L 288.4 532.2 L 289.3 536.2 L 289.5 537.8 L 288.9 540.3 L 287.4 544.0 L 285.0 545.7 L 284.0 546.1 L 282.7 546.2 L 282.0 546.2 L 279.9 545.8 L 276.9 543.9 L 274.7 543.0 L 269.4 541.5 L 268.9 541.5 L 265.7 543.8 L 265.1 546.0 L 265.1 552.7 L 265.8 556.1 L 269.1 561.7 L 269.8 563.4 L 270.5 566.0 L 270.4 568.0 L 269.9 569.7 L 268.4 573.1 L 266.6 574.4 L 263.9 575.9 L 262.1 576.6 L 260.8 573.8 L 253.2 570.6 L 247.4 571.9 L 223.8 576.0 L 205.4 573.9 L 187.7 571.7 L 178.9 567.0 L 176.7 553.9 L 168.9 542.0 L 152.2 536.5 L 135.2 526.7 L 125.9 523.2 L 121.1 525.4 L 120.0 534.8 L 123.0 542.8 L 149.0 561.8 L 149.7 572.9 L 153.0 578.9 L 163.2 586.9 L 175.4 594.6 L 203.3 603.0 L 195.2 610.5 L 188.0 610.7 L 187.3 610.7 L 176.4 606.6 L 157.2 597.2 L 143.1 582.3 L 141.0 572.2 L 136.7 565.5 L 131.7 562.8 L 125.2 571.6 L 115.9 577.4 L 115.6 577.3 L 111.7 584.2 L 104.2 591.2 L 102.7 591.9 L 96.4 598.6 L 87.4 601.2 L 75.8 595.8 L 40.5 574.2 L 14.4 545.4 L 10.0 533.9 L 10.8 520.7 L 14.1 510.4 L 24.7 511.5 L 47.7 519.1 L 58.7 530.9 L 58.2 531.6 L 57.3 535.1 L 57.1 539.5 L 58.2 546.2 L 59.2 548.1 L 52.1 541.4 L 27.8 523.3 L 20.1 523.8 L 19.5 531.0 L 23.2 537.7 L 66.9 570.6 L 75.0 577.0 L 81.0 575.4 L 80.6 568.4 L 91.6 571.4 L 95.3 572.1 L 97.3 572.4 L 100.2 572.7 L 103.8 572.3 L 105.0 571.9 L 106.9 570.1 L 107.9 566.9 L 108.1 564.6 L 108.0 561.0 L 107.6 558.7 L 107.1 557.2 L 109.1 558.2 L 110.4 557.9 L 111.3 556.7 L 111.6 554.8 L 111.6 553.9 L 111.6 552.1 L 111.0 549.8 L 109.6 547.8 L 106.7 543.0 L 106.2 535.1 L 106.2 527.0 L 107.1 522.3 L 110.5 515.6 L 116.3 510.8 L 121.3 507.7 L 131.7 510.3 z M 901.5 694.6 L 907.0 703.5 L 919.7 724.8 L 917.2 731.9 L 914.8 747.3 L 914.7 748.2 L 914.1 750.2 L 913.4 752.7 L 914.1 754.1 L 884.2 754.1 L 883.5 749.6 L 883.1 747.5 L 882.7 746.6 L 868.4 712.3 L 868.1 704.2 L 873.8 699.1 L 895.5 693.2 L 901.5 694.6 z M 148.5 11.6 L 178.7 80.8 L 212.6 135.9 L 211.5 151.9 L 193.5 217.5 L 184.5 250.6 L 184.1 265.2 L 183.7 282.6 L 190.1 322.2 L 203.5 357.1 L 214.8 371.6 L 222.5 381.5 L 221.6 392.3 L 242.5 414.8 L 257.5 433.6 L 288.4 472.1 L 293.5 478.0 L 298.9 477.5 L 311.5 469.5 L 319.4 466.5 L 329.1 473.8 L 327.9 493.4 L 331.6 506.7 L 338.6 511.6 L 339.6 516.1 L 343.5 543.0 L 346.0 572.8 L 347.3 591.0 L 326.4 594.6 L 321.1 574.7 L 315.5 568.1 L 310.3 570.5 L 300.6 577.8 L 282.7 546.2 L 284.0 546.1 L 285.0 545.7 L 287.4 544.0 L 288.9 540.3 L 289.5 537.8 L 289.3 536.2 L 288.4 532.2 L 287.0 529.5 L 285.2 527.0 L 282.8 524.9 L 281.9 524.6 L 279.7 524.5 L 275.4 525.5 L 262.3 529.9 L 260.9 530.9 L 257.4 534.0 L 254.7 536.8 L 250.6 542.8 L 247.1 547.4 L 244.3 549.6 L 239.6 552.9 L 237.8 553.7 L 228.7 559.9 L 223.6 562.0 L 219.9 562.7 L 218.0 562.7 L 212.8 562.1 L 205.4 560.9 L 201.6 560.0 L 195.9 557.8 L 194.3 556.8 L 190.2 553.7 L 183.6 542.7 L 178.6 537.1 L 170.7 529.9 L 158.7 522.8 L 145.0 515.7 L 131.7 510.3 L 121.3 507.7 L 116.3 510.8 L 110.5 515.6 L 107.1 522.3 L 106.2 527.0 L 106.2 535.1 L 106.7 543.0 L 109.6 547.8 L 111.0 549.8 L 111.6 552.1 L 111.6 553.9 L 111.6 554.8 L 111.3 556.7 L 110.4 557.9 L 109.1 558.2 L 107.1 557.2 L 105.8 553.0 L 103.7 549.2 L 101.0 545.5 L 99.1 543.1 L 94.0 537.9 L 89.4 534.0 L 89.0 533.8 L 84.5 530.9 L 78.5 528.5 L 74.5 527.5 L 67.4 526.5 L 62.5 527.1 L 61.3 527.8 L 58.7 530.9 L 47.7 519.1 L 24.7 511.5 L 14.1 510.4 L 10.8 520.7 L 10.0 533.9 L 14.4 545.4 L 40.5 574.2 L 75.8 595.8 L 87.4 601.2 L 96.4 598.6 L 102.7 591.9 L 104.2 591.2 L 111.7 584.2 L 115.6 577.3 L 115.9 577.4 L 125.2 571.6 L 131.7 562.8 L 136.7 565.5 L 141.0 572.2 L 143.1 582.3 L 157.2 597.2 L 176.4 606.6 L 187.3 610.7 L 188.0 610.7 L 188.7 618.0 L 189.4 623.4 L 195.0 628.6 L 179.0 628.6 L 166.8 629.4 L 150.8 637.3 L 144.9 644.4 L 133.4 650.3 L 111.9 652.3 L 106.4 655.6 L 105.8 663.3 L 110.6 677.7 L 115.9 685.5 L 140.1 715.5 L 139.6 723.6 L 136.5 731.1 L 135.5 734.0 L 134.7 736.7 L 147.2 743.7 L 153.4 754.1 L 97.9 754.1 L 87.0 727.0 L 72.9 701.6 L 68.2 691.3 L 61.7 682.3 L 31.1 644.3 L 10.0 621.4 L 10.0 487.5 L 25.2 490.4 L 43.5 501.7 L 66.1 510.8 L 78.6 514.1 L 86.3 512.0 L 90.8 502.5 L 85.5 492.3 L 77.4 494.3 L 70.9 490.5 L 68.1 471.8 L 71.5 465.3 L 75.7 460.7 L 68.7 451.2 L 58.6 446.9 L 47.9 448.5 L 44.1 455.4 L 42.9 468.0 L 50.9 479.3 L 54.4 483.7 L 51.8 485.9 L 45.8 485.6 L 34.3 478.5 L 32.6 469.0 L 35.1 454.6 L 35.4 426.0 L 31.0 407.5 L 18.9 405.1 L 10.0 409.4 L 10.0 335.3 L 11.0 336.2 L 12.0 336.7 L 16.4 336.9 L 19.1 336.9 L 22.9 336.4 L 26.5 334.9 L 28.4 334.4 L 30.4 333.2 L 33.2 332.0 L 39.8 330.1 L 42.5 330.0 L 46.5 330.5 L 51.8 331.7 L 67.0 337.0 L 69.0 338.5 L 69.2 338.6 L 78.6 347.1 L 86.7 355.6 L 88.1 360.0 L 84.3 370.2 L 82.8 374.9 L 81.9 379.3 L 81.3 383.7 L 81.5 389.0 L 81.9 395.2 L 82.6 403.9 L 83.3 410.0 L 84.4 415.6 L 86.6 424.0 L 91.0 436.2 L 97.2 449.1 L 103.0 459.7 L 106.6 465.2 L 108.5 467.3 L 124.2 478.6 L 132.8 483.7 L 146.6 490.4 L 162.5 498.3 L 173.4 501.2 L 181.1 501.7 L 184.8 501.9 L 188.5 501.6 L 193.5 500.2 L 201.7 496.1 L 204.4 494.3 L 208.9 490.8 L 212.8 487.1 L 214.3 485.2 L 216.1 482.4 L 218.0 477.0 L 220.2 467.3 L 220.2 454.8 L 219.0 445.1 L 217.5 439.5 L 216.2 435.5 L 214.2 430.9 L 211.8 426.9 L 209.3 423.6 L 206.3 420.3 L 204.5 418.6 L 191.2 407.1 L 189.0 405.2 L 184.9 402.3 L 171.5 391.7 L 159.1 382.7 L 152.0 378.7 L 148.6 376.2 L 147.0 374.4 L 120.0 348.6 L 106.6 336.5 L 97.8 321.3 L 97.4 319.0 L 97.4 319.0 L 96.6 317.9 L 96.6 315.7 L 96.1 297.1 L 95.2 283.7 L 95.9 278.0 L 98.5 274.6 L 104.8 270.8 L 117.2 271.3 L 125.8 272.2 L 134.9 272.9 L 146.0 272.0 L 150.5 269.8 L 155.1 264.3 L 158.7 256.4 L 160.5 244.0 L 162.2 238.8 L 163.8 235.0 L 164.8 231.7 L 165.3 226.6 L 165.6 191.2 L 160.9 157.4 L 159.1 152.9 L 159.0 152.2 L 158.2 141.7 L 157.7 138.3 L 154.4 126.0 L 153.2 122.5 L 147.1 106.6 L 141.3 94.1 L 127.6 68.0 L 122.2 58.8 L 117.1 50.5 L 107.2 36.8 L 91.6 17.9 L 88.7 13.7 L 86.5 10.0 L 147.7 10.0 L 148.5 11.6 z M 11.6 246.0 L 23.5 263.5 L 33.5 270.6 L 47.5 273.1 L 48.1 298.5 L 48.4 312.4 L 47.9 312.5 L 40.1 315.0 L 36.8 316.7 L 20.3 322.2 L 14.3 324.4 L 11.1 325.9 L 10.0 326.6 L 10.0 242.3 L 11.6 246.0 z M 10.1 45.4 L 10.0 45.7 L 10.0 33.2 L 13.0 33.0 L 10.1 45.4 z M 353.1 717.8 L 355.4 723.9 L 355.8 726.2 L 352.7 754.1 L 344.7 754.1 L 344.4 745.1 L 347.2 736.1 L 351.9 718.9 L 352.1 715.7 L 353.1 717.8 z M 269.4 541.5 L 274.7 543.0 L 276.9 543.9 L 279.9 545.8 L 282.0 546.2 L 282.7 546.2 L 300.6 577.8 L 298.8 586.9 L 299.3 600.6 L 326.4 594.6 L 347.3 591.0 L 355.7 589.5 L 356.0 619.7 L 353.9 633.5 L 344.9 637.7 L 338.5 635.2 L 327.5 633.0 L 324.1 649.8 L 330.0 660.2 L 337.6 662.3 L 345.0 659.1 L 354.2 656.3 L 356.8 661.6 L 357.0 665.7 L 354.8 683.5 L 353.0 702.0 L 352.1 715.7 L 351.9 718.9 L 347.2 736.1 L 344.4 745.1 L 344.7 754.1 L 322.1 754.1 L 319.9 752.8 L 312.9 753.0 L 312.3 754.1 L 288.6 754.1 L 286.4 752.2 L 283.9 754.1 L 269.6 754.1 L 266.2 750.7 L 259.3 740.7 L 259.0 736.8 L 258.7 733.6 L 252.5 715.8 L 251.2 714.5 L 242.4 703.7 L 238.2 697.4 L 236.4 695.3 L 234.3 693.9 L 232.2 693.8 L 230.5 695.3 L 229.8 698.0 L 229.7 701.2 L 229.0 703.5 L 228.3 704.9 L 226.6 706.1 L 224.6 706.6 L 221.2 707.1 L 217.0 706.0 L 212.9 701.9 L 199.8 685.9 L 196.5 681.4 L 191.6 673.5 L 187.5 667.6 L 186.0 664.2 L 185.8 661.3 L 186.1 659.4 L 187.0 658.6 L 188.6 658.1 L 192.3 656.2 L 196.5 655.8 L 199.5 655.2 L 201.6 654.3 L 203.3 653.1 L 203.6 652.5 L 204.3 649.9 L 204.4 648.2 L 203.0 641.4 L 195.0 628.6 L 189.4 623.4 L 188.7 618.0 L 188.0 610.7 L 195.2 610.5 L 203.3 603.0 L 211.6 604.5 L 229.9 606.0 L 246.5 605.4 L 257.4 596.7 L 264.6 581.8 L 262.1 576.6 L 263.9 575.9 L 266.6 574.4 L 268.4 573.1 L 269.9 569.7 L 270.4 568.0 L 270.5 566.0 L 269.8 563.4 L 269.1 561.7 L 265.8 556.1 L 265.1 552.7 L 265.1 546.0 L 265.7 543.8 L 268.9 541.5 L 269.4 541.5 z M 17.5 700.9 L 32.7 718.9 L 43.3 731.5 L 51.4 741.1 L 57.6 754.1 L 10.0 754.1 L 10.0 691.8 L 17.5 700.9 z M 410.7 22.5 L 411.8 29.6 L 411.7 30.7 L 410.6 43.7 L 410.4 46.1 L 413.8 51.9 L 417.0 58.0 L 420.9 62.4 L 430.9 67.1 L 437.7 65.5 L 440.8 63.3 L 442.7 63.2 L 443.0 64.8 L 444.2 82.1 L 449.2 94.8 L 450.9 96.1 L 450.9 96.4 L 466.0 114.5 L 460.7 116.2 L 459.3 117.2 L 457.7 117.8 L 454.8 117.6 L 450.7 116.5 L 447.0 114.0 L 444.5 111.7 L 438.3 105.5 L 432.6 99.0 L 426.9 90.1 L 424.5 85.7 L 423.6 83.9 L 419.6 79.3 L 409.4 60.6 L 406.6 55.2 L 401.9 46.5 L 397.0 32.5 L 394.1 21.7 L 392.9 10.3 L 392.9 10.0 L 408.8 10.0 L 410.7 22.5 z M 251.4 99.8 L 254.4 101.6 L 257.4 103.2 L 260.9 104.9 L 265.6 107.4 L 286.0 136.1 L 287.6 148.5 L 279.7 161.9 L 274.5 166.7 L 266.4 165.4 L 258.7 155.0 L 250.4 154.2 L 234.1 158.7 L 226.8 161.2 L 223.0 168.2 L 218.7 180.9 L 214.1 196.8 L 212.1 208.3 L 209.0 214.8 L 206.8 221.1 L 202.0 218.2 L 193.5 217.5 L 211.5 151.9 L 223.8 150.0 L 240.0 133.9 L 252.1 141.7 L 258.9 143.1 L 263.6 143.0 L 268.5 135.8 L 265.6 130.7 L 262.7 124.6 L 256.0 120.2 L 247.2 114.9 L 248.9 97.9 L 251.4 99.8 z M 748.9 11.9 L 772.1 20.7 L 791.3 29.9 L 811.3 51.2 L 825.4 75.9 L 839.0 88.0 L 874.3 112.0 L 873.2 114.6 L 872.0 116.5 L 870.8 117.5 L 867.8 119.1 L 864.1 119.9 L 858.5 120.6 L 851.9 120.7 L 847.0 120.1 L 843.2 119.2 L 839.9 117.9 L 835.6 115.8 L 831.0 112.8 L 821.9 109.9 L 819.2 109.7 L 815.2 110.4 L 803.7 101.6 L 790.7 73.5 L 763.4 49.1 L 753.6 43.5 L 728.8 29.3 L 701.9 20.3 L 688.0 10.0 L 736.6 10.0 L 748.9 11.9 z M 603.6 717.7 L 607.3 718.7 L 609.5 719.3 L 613.6 721.1 L 613.8 721.2 L 617.2 723.6 L 620.3 727.1 L 623.4 734.8 L 628.4 741.7 L 632.4 745.9 L 635.6 749.1 L 640.0 752.7 L 641.7 754.1 L 623.9 754.1 L 621.3 751.3 L 616.0 741.0 L 609.8 730.8 L 601.7 720.5 L 599.6 717.5 L 603.6 717.7 z M 43.3 23.8 L 47.6 36.3 L 45.5 38.6 L 41.5 43.0 L 36.9 42.5 L 35.8 42.4 L 27.3 29.8 L 19.1 25.3 L 13.0 33.0 L 10.0 33.2 L 10.0 10.0 L 31.1 10.0 L 43.3 23.8 z M 203.0 641.4 L 204.4 648.2 L 204.3 649.9 L 203.6 652.5 L 203.3 653.1 L 201.6 654.3 L 199.5 655.2 L 196.5 655.8 L 192.3 656.2 L 188.6 658.1 L 187.0 658.6 L 186.1 659.4 L 185.8 661.3 L 186.0 664.2 L 187.5 667.6 L 191.6 673.5 L 196.5 681.4 L 199.8 685.9 L 212.9 701.9 L 217.0 706.0 L 221.2 707.1 L 224.6 706.6 L 226.6 706.1 L 228.3 704.9 L 229.0 703.5 L 229.7 701.2 L 229.8 698.0 L 230.5 695.3 L 232.2 693.8 L 234.3 693.9 L 236.4 695.3 L 238.2 697.4 L 242.4 703.7 L 251.2 714.5 L 252.5 715.8 L 258.7 733.6 L 259.0 736.8 L 259.3 740.7 L 266.2 750.7 L 269.6 754.1 L 153.4 754.1 L 147.2 743.7 L 134.7 736.7 L 135.5 734.0 L 136.5 731.1 L 139.6 723.6 L 140.1 715.5 L 115.9 685.5 L 110.6 677.7 L 105.8 663.3 L 106.4 655.6 L 111.9 652.3 L 133.4 650.3 L 144.9 644.4 L 150.8 637.3 L 166.8 629.4 L 179.0 628.6 L 195.0 628.6 L 203.0 641.4 z M 288.6 754.1 L 283.9 754.1 L 286.4 752.2 L 288.6 754.1 z M 322.1 754.1 L 312.3 754.1 L 312.9 753.0 L 319.9 752.8 L 322.1 754.1 z M 831.3 200.3 L 833.1 200.8 L 832.0 204.7 L 831.9 206.8 L 832.9 213.8 L 833.6 215.9 L 834.6 218.4 L 837.6 223.0 L 840.2 226.2 L 844.6 231.0 L 847.7 233.3 L 851.0 235.4 L 853.0 236.3 L 858.4 237.9 L 864.8 238.9 L 865.1 240.5 L 864.6 242.6 L 863.6 244.4 L 863.1 245.3 L 861.4 247.2 L 857.9 249.7 L 855.4 251.1 L 850.6 252.4 L 846.9 252.7 L 838.7 252.2 L 835.5 251.7 L 824.0 251.9 L 812.4 253.5 L 805.6 253.1 L 802.1 252.2 L 800.5 251.4 L 800.3 251.2 L 799.4 250.4 L 797.9 248.2 L 796.4 245.0 L 794.6 235.9 L 793.9 229.8 L 793.0 226.1 L 792.0 224.3 L 791.6 222.7 L 791.8 219.7 L 792.4 217.9 L 794.5 215.4 L 798.1 212.7 L 798.8 212.3 L 804.7 208.5 L 807.0 207.9 L 808.9 207.0 L 813.8 204.2 L 819.1 202.4 L 819.5 202.2 L 824.0 200.0 L 825.0 199.8 L 827.4 199.7 L 831.3 200.3 z M 830.9 11.9 L 831.4 14.0 L 834.9 21.0 L 838.6 24.1 L 841.2 25.2 L 846.2 26.7 L 849.8 27.4 L 851.8 27.3 L 853.8 26.2 L 855.8 25.6 L 857.3 24.2 L 859.0 21.9 L 861.0 12.3 L 861.6 10.0 L 894.3 10.0 L 904.5 37.8 L 912.0 44.6 L 916.9 48.3 L 923.7 52.4 L 928.7 55.2 L 933.0 58.3 L 936.4 61.2 L 941.5 66.9 L 943.8 72.1 L 945.2 76.9 L 945.6 79.2 L 945.8 82.1 L 945.7 84.5 L 945.5 87.0 L 944.9 89.8 L 943.9 92.0 L 942.4 93.6 L 938.3 89.4 L 932.4 83.3 L 931.0 82.3 L 930.4 82.1 L 930.5 81.6 L 928.5 79.7 L 926.4 78.3 L 925.1 77.0 L 921.2 74.8 L 916.2 71.5 L 915.0 70.4 L 912.7 66.8 L 911.3 63.8 L 909.1 58.7 L 905.9 52.9 L 904.8 51.6 L 903.3 50.7 L 901.2 49.9 L 898.2 49.5 L 891.8 49.7 L 875.0 51.0 L 869.1 52.4 L 864.3 54.7 L 861.9 56.6 L 860.6 58.8 L 860.2 63.1 L 860.5 67.2 L 860.9 69.2 L 862.5 74.2 L 863.4 76.1 L 866.7 81.2 L 870.0 85.6 L 871.8 87.8 L 873.7 91.9 L 875.3 98.9 L 875.7 101.7 L 875.8 109.3 L 875.4 110.5 L 874.5 111.7 L 874.3 112.0 L 839.0 88.0 L 825.4 75.9 L 811.3 51.2 L 791.3 29.9 L 772.1 20.7 L 748.9 11.9 L 736.6 10.0 L 829.9 10.0 L 830.9 11.9 z M 288.2 217.8 L 295.0 219.0 L 302.1 220.7 L 304.9 222.7 L 306.6 223.3 L 310.8 226.4 L 315.4 229.1 L 320.7 232.7 L 326.5 237.1 L 333.1 242.8 L 341.3 251.4 L 352.1 264.5 L 360.4 274.7 L 366.6 282.9 L 375.6 296.4 L 391.0 317.5 L 407.3 336.7 L 412.1 342.9 L 434.0 374.9 L 442.4 388.8 L 452.8 404.7 L 460.6 417.2 L 463.5 422.4 L 467.1 430.3 L 474.7 449.5 L 488.9 494.4 L 491.7 504.2 L 502.2 534.3 L 505.4 544.7 L 508.7 553.4 L 514.7 573.2 L 523.4 606.0 L 527.1 622.4 L 528.7 630.8 L 529.5 635.8 L 530.3 645.1 L 530.6 652.6 L 530.3 657.6 L 529.5 661.3 L 527.8 666.3 L 524.3 675.0 L 523.6 677.6 L 523.6 681.0 L 524.8 686.3 L 527.3 691.1 L 527.7 693.9 L 526.6 699.1 L 525.9 701.2 L 522.7 708.6 L 521.9 709.6 L 521.2 712.1 L 521.0 714.4 L 522.2 717.4 L 522.7 718.0 L 524.4 718.6 L 525.8 719.6 L 533.3 720.3 L 534.8 720.7 L 536.5 722.2 L 538.9 726.6 L 539.1 728.2 L 537.3 734.2 L 535.8 737.2 L 534.5 742.8 L 534.3 744.2 L 534.7 748.8 L 536.6 752.6 L 537.5 754.1 L 510.2 754.1 L 508.7 751.9 L 504.1 747.3 L 500.6 744.6 L 500.9 742.1 L 500.7 739.7 L 499.9 735.0 L 497.9 726.7 L 495.8 719.6 L 493.4 714.6 L 492.2 712.8 L 490.4 711.3 L 488.3 710.4 L 485.5 711.9 L 483.0 713.7 L 481.3 711.5 L 480.5 710.0 L 479.9 707.4 L 477.1 699.1 L 475.3 695.5 L 471.6 684.8 L 470.2 678.9 L 469.3 673.0 L 468.2 667.7 L 464.8 656.5 L 457.8 638.1 L 455.3 632.3 L 447.8 617.7 L 445.6 614.0 L 442.2 607.4 L 438.6 599.6 L 436.6 594.3 L 427.9 574.3 L 423.8 563.3 L 417.6 543.6 L 414.4 536.0 L 407.2 521.4 L 404.9 515.9 L 400.8 507.7 L 396.1 499.4 L 389.6 489.2 L 382.2 476.5 L 376.2 467.3 L 375.6 466.2 L 365.1 451.4 L 341.3 423.5 L 315.9 397.3 L 293.0 373.9 L 292.9 373.7 L 283.8 364.1 L 281.4 361.4 L 273.8 349.8 L 254.9 323.0 L 250.0 314.0 L 246.1 307.4 L 243.0 302.8 L 237.9 293.6 L 233.7 286.9 L 228.7 277.9 L 227.7 275.8 L 225.7 269.9 L 225.3 268.3 L 225.9 261.1 L 227.1 256.2 L 227.7 255.6 L 228.6 253.0 L 229.8 251.2 L 231.0 250.3 L 236.2 244.8 L 237.7 242.7 L 239.4 241.1 L 242.3 237.7 L 244.0 235.1 L 247.2 232.5 L 250.4 229.3 L 252.8 227.4 L 261.2 221.7 L 267.8 219.3 L 272.5 218.2 L 279.3 217.3 L 288.2 217.8 z M 280.2 226.4 L 276.6 226.9 L 269.8 228.9 L 266.0 231.4 L 264.1 233.3 L 253.8 244.8 L 249.9 249.7 L 240.7 257.9 L 237.9 261.0 L 237.1 262.8 L 236.9 266.2 L 238.1 269.6 L 249.8 291.1 L 251.9 294.1 L 252.0 294.8 L 282.0 347.6 L 309.5 378.8 L 337.9 405.5 L 375.9 450.6 L 406.8 502.4 L 430.3 559.1 L 456.4 614.4 L 460.9 627.9 L 462.4 630.3 L 466.2 636.9 L 468.9 642.9 L 473.4 651.3 L 476.2 655.2 L 480.5 662.4 L 484.5 670.0 L 488.1 676.0 L 492.3 681.8 L 495.2 688.7 L 495.9 691.4 L 496.6 695.6 L 497.2 698.1 L 497.7 699.2 L 499.8 702.0 L 508.7 694.6 L 517.6 672.8 L 516.8 626.1 L 507.0 585.1 L 492.0 521.9 L 480.0 491.7 L 451.2 435.3 L 438.2 398.9 L 412.2 360.9 L 406.5 352.5 L 401.7 344.2 L 398.1 339.0 L 394.4 334.7 L 392.2 331.4 L 389.5 328.2 L 385.6 321.8 L 380.2 314.0 L 377.1 310.3 L 367.8 300.8 L 350.5 281.2 L 339.4 269.9 L 331.2 260.9 L 329.4 258.2 L 323.4 250.6 L 319.4 245.8 L 317.0 243.6 L 310.5 238.8 L 307.4 237.4 L 302.4 234.2 L 300.1 233.2 L 294.7 229.3 L 291.7 228.0 L 286.6 226.8 L 283.3 226.3 L 280.2 226.4 z M 1158.2 681.3 L 1162.2 690.7 L 1162.2 690.8 L 1162.2 702.5 L 1168.6 710.4 L 1175.6 713.5 L 1183.9 711.2 L 1186.6 716.0 L 1192.6 722.9 L 1199.3 721.2 L 1202.4 716.0 L 1206.7 715.0 L 1210.0 716.2 L 1210.0 754.1 L 1176.6 754.1 L 1176.4 753.8 L 1167.8 743.5 L 1167.7 743.4 L 1162.7 740.9 L 1159.1 739.4 L 1149.7 736.0 L 1144.4 733.7 L 1140.7 731.5 L 1135.7 728.2 L 1132.0 725.3 L 1125.6 719.4 L 1117.1 710.7 L 1116.0 707.7 L 1114.5 700.7 L 1114.8 694.3 L 1115.3 691.4 L 1116.5 689.5 L 1118.8 687.4 L 1121.7 685.9 L 1153.3 680.1 L 1158.2 681.3 z M 951.1 215.9 L 955.5 216.8 L 964.9 221.2 L 968.6 223.9 L 969.9 224.6 L 970.0 224.6 L 971.7 232.6 L 980.8 244.6 L 981.6 254.0 L 972.2 254.0 L 947.1 254.8 L 945.2 252.6 L 942.6 250.3 L 939.9 248.4 L 936.9 245.4 L 934.5 241.7 L 933.2 237.5 L 932.7 236.7 L 932.0 234.3 L 931.9 232.7 L 932.8 227.8 L 933.7 224.8 L 934.6 222.4 L 936.4 219.8 L 939.0 217.2 L 940.3 216.6 L 942.1 216.3 L 944.7 215.0 L 951.1 215.9 z M 46.2 18.5 L 53.6 28.4 L 61.5 37.8 L 66.3 52.4 L 71.2 62.7 L 71.5 75.8 L 75.2 93.1 L 79.7 104.1 L 85.2 115.7 L 88.2 121.2 L 94.4 130.0 L 98.5 139.7 L 102.8 146.0 L 104.3 149.2 L 106.9 154.4 L 111.0 162.6 L 113.4 170.8 L 113.9 177.4 L 114.1 185.5 L 114.3 196.6 L 111.8 201.9 L 107.7 205.2 L 102.9 210.5 L 96.4 216.7 L 94.8 219.9 L 90.4 227.7 L 83.2 226.7 L 77.5 224.0 L 67.4 214.4 L 60.8 205.5 L 54.8 197.5 L 49.7 188.6 L 43.1 178.0 L 35.4 168.5 L 28.4 156.2 L 24.6 145.6 L 21.6 135.1 L 21.3 123.3 L 21.4 115.0 L 21.6 99.9 L 22.6 90.7 L 22.6 81.5 L 27.6 77.4 L 31.9 74.5 L 37.9 72.3 L 44.6 72.0 L 46.2 82.3 L 51.3 96.7 L 43.9 92.2 L 40.1 90.0 L 36.1 90.2 L 30.6 97.3 L 29.8 105.2 L 29.4 112.9 L 29.4 122.7 L 30.8 137.0 L 33.6 144.7 L 41.0 155.4 L 47.4 165.1 L 53.0 170.6 L 60.9 181.2 L 66.6 188.3 L 71.7 193.1 L 79.8 196.1 L 90.7 195.7 L 96.5 191.5 L 99.6 178.6 L 99.7 172.0 L 99.7 163.9 L 98.1 157.4 L 93.5 145.8 L 85.8 134.3 L 78.2 123.9 L 66.7 101.7 L 62.5 89.7 L 60.4 78.5 L 55.8 65.8 L 53.5 54.7 L 47.9 44.1 L 45.5 38.6 L 47.6 36.3 L 43.3 23.8 L 31.1 10.0 L 38.1 10.0 L 46.2 18.5 z M 1020.3 217.9 L 1032.1 219.0 L 1040.3 218.9 L 1062.1 219.3 L 1066.8 218.9 L 1071.5 228.0 L 1073.4 230.8 L 1074.7 233.3 L 1075.3 236.6 L 1075.3 239.0 L 1072.2 242.2 L 1069.4 243.4 L 1067.1 243.7 L 1065.2 243.7 L 1061.8 243.3 L 1057.7 242.3 L 1054.1 241.0 L 1045.3 236.9 L 1037.4 234.7 L 1028.5 233.9 L 1024.5 233.9 L 1019.1 234.7 L 1015.6 235.8 L 1010.8 238.0 L 1001.5 240.9 L 997.7 241.0 L 995.5 240.4 L 992.3 239.0 L 991.0 238.1 L 987.9 235.2 L 986.4 233.2 L 986.8 230.4 L 987.7 228.4 L 989.3 225.4 L 990.5 221.8 L 991.2 217.9 L 992.2 215.8 L 1003.0 215.1 L 1020.3 217.9 z M 836.5 202.4 L 843.9 207.3 L 850.0 212.1 L 853.1 214.8 L 856.3 218.1 L 861.1 224.2 L 862.9 226.8 L 864.4 229.6 L 865.2 232.6 L 865.5 235.7 L 865.4 238.1 L 864.8 238.9 L 858.4 237.9 L 853.0 236.3 L 851.0 235.4 L 847.7 233.3 L 844.6 231.0 L 840.2 226.2 L 837.6 223.0 L 834.6 218.4 L 833.6 215.9 L 832.9 213.8 L 831.9 206.8 L 832.0 204.7 L 833.1 200.8 L 836.5 202.4 z M 31.1 644.3 L 61.7 682.3 L 68.2 691.3 L 72.9 701.6 L 87.0 727.0 L 97.9 754.1 L 90.6 754.1 L 82.1 732.7 L 81.0 729.9 L 66.7 704.4 L 63.3 696.3 L 62.4 694.7 L 56.4 686.4 L 26.0 648.7 L 10.0 631.3 L 10.0 621.4 L 31.1 644.3 z M 10.1 658.1 L 12.5 662.0 L 15.7 665.8 L 18.4 668.1 L 21.1 670.1 L 29.7 681.3 L 39.8 696.2 L 52.1 717.9 L 60.9 732.5 L 61.5 733.4 L 69.7 750.4 L 70.9 754.1 L 66.4 754.1 L 66.3 753.7 L 61.1 744.4 L 53.5 731.9 L 42.4 713.7 L 26.7 692.1 L 11.8 676.4 L 10.0 674.9 L 10.0 658.0 L 10.1 658.1 z M 26.0 648.7 L 56.4 686.4 L 62.4 694.7 L 63.3 696.3 L 66.7 704.4 L 81.0 729.9 L 82.1 732.7 L 90.6 754.1 L 81.7 754.1 L 73.4 736.6 L 71.4 732.4 L 68.2 725.7 L 53.6 697.3 L 51.2 693.4 L 43.1 679.8 L 31.3 665.6 L 25.7 662.5 L 17.1 655.6 L 12.5 650.8 L 10.0 647.9 L 10.0 631.3 L 26.0 648.7 z M 12.5 650.8 L 17.1 655.6 L 25.7 662.5 L 31.3 665.6 L 43.1 679.8 L 51.2 693.4 L 53.6 697.3 L 68.2 725.7 L 71.4 732.4 L 73.4 736.6 L 81.7 754.1 L 70.9 754.1 L 69.7 750.4 L 61.5 733.4 L 60.9 732.5 L 52.1 717.9 L 39.8 696.2 L 29.7 681.3 L 21.1 670.1 L 18.4 668.1 L 15.7 665.8 L 12.5 662.0 L 10.1 658.1 L 10.0 658.0 L 10.0 647.9 L 12.5 650.8 z M 321.1 574.7 L 326.4 594.6 L 299.3 600.6 L 298.8 586.9 L 300.6 577.8 L 310.3 570.5 L 315.5 568.1 L 321.1 574.7 z M 259.6 40.7 L 244.0 25.1 L 226.5 20.2 L 214.1 29.3 L 207.1 42.7 L 204.4 57.4 L 207.2 79.9 L 210.1 109.8 L 207.7 103.9 L 197.4 82.3 L 192.3 70.1 L 188.6 62.4 L 188.5 62.1 L 186.5 58.5 L 164.8 10.0 L 272.4 10.0 L 259.6 40.7 z M 644.2 480.4 L 648.4 481.2 L 658.7 484.5 L 661.0 485.4 L 663.6 487.1 L 668.6 489.4 L 669.3 490.0 L 672.1 491.3 L 678.0 494.6 L 683.2 498.4 L 687.8 502.3 L 698.7 512.9 L 706.0 521.3 L 712.7 530.2 L 719.2 537.0 L 722.7 541.4 L 724.5 544.4 L 730.9 553.3 L 734.3 558.8 L 736.5 563.0 L 737.9 566.2 L 739.9 572.3 L 740.6 576.1 L 740.5 578.4 L 739.6 581.3 L 739.1 582.6 L 737.9 584.0 L 737.1 586.4 L 735.7 588.3 L 734.0 594.5 L 732.9 600.5 L 732.5 607.8 L 732.7 610.3 L 733.5 614.2 L 733.9 615.4 L 736.0 619.3 L 738.0 622.3 L 738.4 622.8 L 739.6 623.9 L 733.7 630.4 L 725.5 631.7 L 721.1 630.1 L 718.9 614.5 L 718.6 602.7 L 724.2 585.0 L 725.9 575.0 L 719.7 559.2 L 709.8 544.3 L 673.9 507.1 L 641.9 480.3 L 644.2 480.4 z M 551.7 448.6 L 552.4 449.7 L 557.4 451.2 L 571.3 461.4 L 584.4 470.9 L 595.1 476.1 L 615.5 480.0 L 638.3 498.5 L 636.2 514.5 L 671.7 533.5 L 707.7 561.3 L 725.9 575.0 L 724.2 585.0 L 718.6 602.7 L 718.9 614.5 L 721.1 630.1 L 710.0 629.6 L 700.4 622.7 L 664.5 583.0 L 632.5 542.3 L 619.2 536.8 L 609.3 537.9 L 601.1 543.6 L 597.1 555.0 L 568.8 554.5 L 572.0 520.7 L 582.2 506.9 L 558.9 501.0 L 553.6 483.1 L 547.0 464.6 L 547.7 454.4 L 549.3 448.7 L 550.2 447.2 L 551.7 448.6 z M 615.4 407.7 L 686.3 453.7 L 741.7 497.8 L 770.1 512.8 L 768.7 512.9 L 764.3 513.6 L 759.2 516.7 L 758.2 517.8 L 757.7 519.7 L 757.5 521.8 L 757.8 523.1 L 757.9 528.2 L 758.4 530.1 L 759.2 531.5 L 761.6 534.2 L 772.2 541.6 L 774.9 543.2 L 778.7 545.7 L 783.1 549.0 L 790.2 554.9 L 804.0 565.0 L 812.1 569.9 L 817.5 572.6 L 821.1 575.3 L 822.8 576.9 L 824.5 579.3 L 827.4 584.4 L 828.3 587.0 L 830.6 598.1 L 829.9 606.4 L 828.7 617.1 L 822.7 621.0 L 809.0 622.7 L 790.5 617.4 L 759.3 596.3 L 746.2 599.8 L 739.8 608.4 L 740.3 623.1 L 739.6 623.9 L 738.4 622.8 L 738.0 622.3 L 736.0 619.3 L 733.9 615.4 L 733.5 614.2 L 732.7 610.3 L 732.5 607.8 L 732.9 600.5 L 734.0 594.5 L 735.7 588.3 L 737.1 586.4 L 737.9 584.0 L 739.1 582.6 L 739.6 581.3 L 740.5 578.4 L 740.6 576.1 L 739.9 572.3 L 737.9 566.2 L 736.5 563.0 L 734.3 558.8 L 730.9 553.3 L 724.5 544.4 L 722.7 541.4 L 719.2 537.0 L 712.7 530.2 L 706.0 521.3 L 698.7 512.9 L 687.8 502.3 L 683.2 498.4 L 678.0 494.6 L 672.1 491.3 L 669.3 490.0 L 668.6 489.4 L 663.6 487.1 L 661.0 485.4 L 658.7 484.5 L 648.4 481.2 L 644.2 480.4 L 641.9 480.3 L 641.1 479.6 L 603.1 466.0 L 583.6 452.8 L 584.1 452.0 L 585.5 449.4 L 585.9 448.3 L 588.3 437.4 L 589.9 431.7 L 594.1 420.7 L 595.8 415.1 L 596.5 411.6 L 596.5 407.0 L 596.1 402.5 L 595.2 398.4 L 595.4 394.7 L 615.4 407.7 z M 603.1 466.0 L 641.1 479.6 L 641.9 480.3 L 673.9 507.1 L 709.8 544.3 L 719.7 559.2 L 725.9 575.0 L 707.7 561.3 L 671.7 533.5 L 636.2 514.5 L 638.3 498.5 L 615.5 480.0 L 595.1 476.1 L 584.4 470.9 L 571.3 461.4 L 580.1 456.9 L 581.8 455.4 L 583.6 452.8 L 603.1 466.0 z M 186.5 58.5 L 188.5 62.1 L 188.6 62.4 L 192.3 70.1 L 197.4 82.3 L 207.7 103.9 L 210.1 109.8 L 212.6 135.9 L 178.7 80.8 L 148.5 11.6 L 147.7 10.0 L 164.8 10.0 L 186.5 58.5 z M 282.8 13.1 L 281.8 14.3 L 278.5 20.0 L 272.8 28.3 L 265.9 37.4 L 263.4 40.2 L 260.1 43.4 L 258.5 44.7 L 259.6 40.7 L 272.4 10.0 L 284.6 10.0 L 282.8 13.1 z M 392.9 10.3 L 394.1 21.7 L 397.0 32.5 L 401.9 46.5 L 406.6 55.2 L 409.4 60.6 L 419.6 79.3 L 423.6 83.9 L 424.5 85.7 L 426.9 90.1 L 432.6 99.0 L 438.3 105.5 L 444.5 111.7 L 447.0 114.0 L 450.7 116.5 L 454.8 117.6 L 457.7 117.8 L 459.3 117.2 L 460.7 116.2 L 466.0 114.5 L 468.9 117.9 L 472.4 134.8 L 470.1 136.5 L 466.4 137.2 L 464.5 137.0 L 463.5 136.7 L 457.0 132.5 L 448.8 126.7 L 444.7 123.3 L 441.1 121.0 L 432.5 114.4 L 424.4 105.5 L 414.5 88.9 L 405.3 69.7 L 398.2 55.6 L 392.1 38.9 L 387.3 27.2 L 385.7 19.7 L 386.0 10.2 L 386.0 10.0 L 392.9 10.0 L 392.9 10.3 z M 432.9 27.3 L 439.9 47.7 L 442.7 63.2 L 440.8 63.3 L 437.7 65.5 L 430.9 67.1 L 420.9 62.4 L 417.0 58.0 L 413.8 51.9 L 410.4 46.1 L 410.6 43.7 L 411.7 30.7 L 411.8 29.6 L 410.7 22.5 L 408.8 10.0 L 424.3 10.0 L 432.9 27.3 z M 88.7 13.7 L 91.6 17.9 L 107.2 36.8 L 117.1 50.5 L 122.2 58.8 L 127.6 68.0 L 141.3 94.1 L 147.1 106.6 L 153.2 122.5 L 154.4 126.0 L 157.7 138.3 L 158.2 141.7 L 159.0 152.2 L 159.1 152.9 L 141.3 109.5 L 110.2 56.2 L 90.7 25.9 L 76.4 10.8 L 76.1 10.0 L 86.5 10.0 L 88.7 13.7 z M 244.0 25.1 L 259.6 40.7 L 258.5 44.7 L 251.8 69.2 L 248.9 97.9 L 247.2 114.9 L 240.0 133.9 L 223.8 150.0 L 211.5 151.9 L 212.6 135.9 L 210.1 109.8 L 207.2 79.9 L 204.4 57.4 L 207.1 42.7 L 214.1 29.3 L 226.5 20.2 L 244.0 25.1 z M 728.5 96.0 L 761.2 126.7 L 784.9 152.2 L 784.4 152.8 L 781.5 155.9 L 776.9 158.5 L 772.7 159.2 L 768.3 160.5 L 765.8 161.7 L 764.8 162.5 L 763.3 160.5 L 718.0 107.9 L 708.5 100.1 L 708.7 99.0 L 711.0 95.7 L 714.0 92.8 L 719.4 89.2 L 728.5 96.0 z M 861.0 12.3 L 859.0 21.9 L 857.3 24.2 L 855.8 25.6 L 853.8 26.2 L 851.8 27.3 L 849.8 27.4 L 846.2 26.7 L 841.2 25.2 L 838.6 24.1 L 834.9 21.0 L 831.4 14.0 L 830.9 11.9 L 829.9 10.0 L 861.6 10.0 L 861.0 12.3 z M 554.0 17.5 L 556.5 38.1 L 567.5 63.7 L 573.3 81.4 L 576.8 84.2 L 580.7 88.3 L 586.3 95.5 L 590.4 104.0 L 591.4 109.2 L 591.7 111.5 L 592.0 118.3 L 592.4 135.3 L 593.3 143.9 L 593.4 152.8 L 596.8 168.7 L 597.5 177.1 L 597.3 179.9 L 596.8 181.7 L 595.3 183.4 L 592.1 185.5 L 589.7 186.2 L 585.4 187.0 L 579.8 187.6 L 576.9 188.6 L 572.8 189.6 L 566.2 189.8 L 560.6 190.5 L 537.3 155.1 L 536.8 154.4 L 524.5 141.6 L 517.9 140.4 L 511.6 146.9 L 507.3 157.2 L 511.8 183.0 L 498.1 192.9 L 487.9 183.5 L 477.1 157.6 L 472.4 134.8 L 468.9 117.9 L 466.0 114.5 L 450.9 96.4 L 450.9 96.1 L 449.2 94.8 L 444.2 82.1 L 443.0 64.8 L 442.7 63.2 L 439.9 47.7 L 432.9 27.3 L 424.3 10.0 L 556.1 10.0 L 554.0 17.5 z M 701.9 20.3 L 728.8 29.3 L 753.6 43.5 L 753.5 46.2 L 753.3 48.9 L 752.9 50.3 L 751.2 54.2 L 749.8 56.0 L 744.2 60.0 L 736.9 63.9 L 734.1 66.7 L 732.1 70.7 L 730.2 76.2 L 729.0 80.3 L 727.4 82.9 L 726.3 84.2 L 721.2 88.0 L 719.4 89.2 L 714.0 92.8 L 711.0 95.7 L 708.7 99.0 L 708.5 100.1 L 708.2 101.4 L 708.3 103.8 L 709.7 108.5 L 711.6 112.8 L 713.1 115.5 L 714.9 118.1 L 716.9 122.6 L 717.8 126.5 L 718.0 128.2 L 717.6 130.0 L 716.7 132.2 L 714.8 133.8 L 711.8 135.2 L 710.4 136.5 L 708.6 139.2 L 705.9 142.2 L 704.4 143.3 L 702.7 144.0 L 699.5 144.0 L 697.9 143.3 L 694.0 140.6 L 691.6 138.3 L 684.2 128.5 L 677.5 118.8 L 673.0 114.5 L 666.6 109.1 L 663.6 106.1 L 661.0 103.2 L 657.1 97.4 L 655.4 93.9 L 654.1 90.3 L 653.0 84.9 L 653.5 83.6 L 654.7 81.8 L 656.1 80.9 L 659.3 80.3 L 662.4 80.2 L 664.1 79.3 L 669.3 75.5 L 672.2 70.9 L 672.3 70.6 L 672.5 69.9 L 672.9 67.4 L 672.7 65.4 L 670.6 61.3 L 666.1 54.6 L 662.3 50.1 L 656.8 44.4 L 652.0 40.1 L 629.2 25.5 L 626.5 21.0 L 624.4 16.9 L 621.4 10.0 L 688.0 10.0 L 701.9 20.3 z M 54.1 324.9 L 69.2 338.6 L 69.0 338.5 L 67.0 337.0 L 51.8 331.7 L 46.5 330.5 L 42.5 330.0 L 39.8 330.1 L 33.2 332.0 L 30.4 333.2 L 28.4 334.4 L 26.5 334.9 L 22.9 336.4 L 19.1 336.9 L 16.4 336.9 L 12.0 336.7 L 11.0 336.2 L 10.0 335.3 L 10.0 326.6 L 11.1 325.9 L 14.3 324.4 L 20.3 322.2 L 36.8 316.7 L 40.1 315.0 L 47.9 312.5 L 48.4 312.4 L 54.1 324.9 z M 901.2 49.9 L 903.3 50.7 L 904.8 51.6 L 905.9 52.9 L 909.1 58.7 L 911.3 63.8 L 912.7 66.8 L 915.0 70.4 L 916.2 71.5 L 921.2 74.8 L 925.1 77.0 L 926.4 78.3 L 928.5 79.7 L 930.5 81.6 L 930.4 82.1 L 931.0 82.3 L 932.4 83.3 L 938.3 89.4 L 942.4 93.6 L 945.8 97.4 L 952.9 104.3 L 956.5 108.8 L 961.2 116.2 L 963.1 120.3 L 964.1 124.2 L 964.6 130.0 L 964.6 130.3 L 964.3 134.4 L 963.2 141.2 L 962.1 145.8 L 959.7 153.1 L 956.1 161.4 L 955.6 163.7 L 955.5 166.7 L 955.7 171.4 L 956.7 177.2 L 957.8 179.7 L 958.8 181.0 L 960.0 182.2 L 964.6 185.5 L 971.6 188.1 L 975.5 188.6 L 980.8 188.7 L 985.6 188.4 L 990.6 187.8 L 999.0 187.6 L 1013.3 186.0 L 1032.5 185.3 L 1041.6 185.7 L 1042.9 186.2 L 1044.7 187.6 L 1047.9 190.6 L 1053.2 197.6 L 1055.3 201.0 L 1059.7 205.7 L 1060.3 206.2 L 1062.5 207.9 L 1065.0 211.5 L 1066.6 214.7 L 1066.9 216.2 L 1066.8 218.9 L 1062.1 219.3 L 1040.3 218.9 L 1032.1 219.0 L 1020.3 217.9 L 1003.0 215.1 L 992.2 215.8 L 989.2 214.9 L 986.7 214.8 L 985.7 215.0 L 984.3 215.8 L 980.5 219.0 L 977.0 223.5 L 975.7 224.7 L 974.7 225.1 L 972.6 225.2 L 970.0 224.6 L 969.9 224.6 L 968.6 223.9 L 964.9 221.2 L 955.5 216.8 L 951.1 215.9 L 944.7 215.0 L 942.1 216.3 L 940.3 216.6 L 939.0 217.2 L 936.4 219.8 L 934.6 222.4 L 933.7 224.8 L 932.8 227.8 L 931.9 232.7 L 932.0 234.3 L 932.7 236.7 L 933.2 237.5 L 934.5 241.7 L 936.9 245.4 L 939.9 248.4 L 942.6 250.3 L 945.2 252.6 L 947.1 254.8 L 947.4 255.1 L 951.0 259.9 L 954.1 264.6 L 958.3 271.8 L 961.3 277.5 L 961.4 279.0 L 962.9 281.3 L 964.3 284.5 L 964.7 287.0 L 964.4 288.2 L 964.3 288.6 L 961.9 294.0 L 961.4 296.1 L 961.2 298.8 L 961.6 301.1 L 964.6 308.6 L 972.5 322.9 L 974.1 326.3 L 974.7 328.7 L 974.8 331.5 L 974.9 332.8 L 974.6 334.2 L 973.1 336.9 L 971.3 338.2 L 967.9 339.8 L 966.9 340.0 L 957.9 341.5 L 956.3 342.3 L 954.8 343.4 L 951.6 346.0 L 948.9 348.9 L 946.4 352.1 L 945.1 353.4 L 942.6 355.3 L 940.2 356.8 L 934.1 360.0 L 930.2 363.0 L 928.4 364.0 L 918.4 369.0 L 916.7 369.3 L 913.3 369.7 L 903.2 369.2 L 898.8 368.5 L 897.3 367.9 L 891.4 364.0 L 888.7 361.4 L 880.4 352.3 L 876.1 348.9 L 868.3 344.2 L 860.1 340.2 L 857.7 339.4 L 852.1 338.3 L 846.6 337.8 L 840.6 336.1 L 838.9 335.1 L 836.0 332.3 L 834.1 328.1 L 834.0 327.1 L 834.3 324.1 L 833.9 321.9 L 830.3 317.2 L 827.2 314.2 L 824.2 312.2 L 823.3 311.9 L 812.6 309.5 L 807.6 307.8 L 806.7 307.3 L 804.6 305.5 L 802.7 304.4 L 800.2 301.4 L 799.2 299.5 L 798.6 297.1 L 798.2 293.6 L 798.0 290.7 L 796.7 288.3 L 794.1 285.4 L 790.9 282.5 L 788.1 280.7 L 784.4 279.2 L 781.2 278.5 L 776.5 278.0 L 771.1 274.7 L 762.8 268.3 L 760.9 266.5 L 759.2 265.3 L 759.0 265.3 L 752.7 262.5 L 749.1 259.8 L 742.9 252.6 L 741.1 250.1 L 739.7 246.7 L 738.7 238.1 L 738.2 236.2 L 734.5 229.5 L 729.4 222.1 L 718.1 209.2 L 714.6 204.8 L 710.8 197.8 L 704.3 187.5 L 702.5 185.3 L 698.2 177.3 L 696.9 172.7 L 696.4 168.9 L 696.6 166.6 L 697.3 164.4 L 699.2 162.4 L 701.0 161.8 L 710.5 163.0 L 719.1 168.0 L 722.1 169.3 L 726.2 171.8 L 728.1 172.5 L 731.3 174.4 L 733.3 176.0 L 735.9 179.0 L 739.7 182.1 L 741.0 182.8 L 748.5 186.0 L 750.6 186.4 L 755.1 185.7 L 759.2 184.1 L 762.8 180.5 L 763.9 178.1 L 764.2 175.5 L 764.2 173.8 L 763.5 171.3 L 763.0 166.5 L 763.1 164.1 L 764.1 163.0 L 764.8 162.5 L 765.8 161.7 L 768.3 160.5 L 772.7 159.2 L 776.9 158.5 L 781.5 155.9 L 784.4 152.8 L 784.9 152.2 L 785.0 152.0 L 785.4 146.9 L 783.6 142.7 L 782.2 138.4 L 781.1 136.7 L 781.0 135.3 L 779.9 133.4 L 779.4 131.4 L 779.4 129.3 L 782.3 125.9 L 786.9 124.7 L 793.0 123.8 L 796.3 123.7 L 799.2 122.5 L 800.5 121.2 L 802.8 119.5 L 804.1 118.2 L 804.1 117.6 L 806.3 115.6 L 806.7 114.8 L 810.4 112.1 L 813.2 110.7 L 815.2 110.4 L 819.2 109.7 L 821.9 109.9 L 831.0 112.8 L 835.6 115.8 L 839.9 117.9 L 843.2 119.2 L 847.0 120.1 L 851.9 120.7 L 858.5 120.6 L 864.1 119.9 L 867.8 119.1 L 870.8 117.5 L 872.0 116.5 L 873.2 114.6 L 874.3 112.0 L 874.5 111.7 L 875.4 110.5 L 875.8 109.3 L 875.7 101.7 L 875.3 98.9 L 873.7 91.9 L 871.8 87.8 L 870.0 85.6 L 866.7 81.2 L 863.4 76.1 L 862.5 74.2 L 860.9 69.2 L 860.5 67.2 L 860.2 63.1 L 860.6 58.8 L 861.9 56.6 L 864.3 54.7 L 869.1 52.4 L 875.0 51.0 L 891.8 49.7 L 898.2 49.5 L 901.2 49.9 z M 825.0 199.8 L 824.0 200.0 L 819.5 202.2 L 819.1 202.4 L 813.8 204.2 L 808.9 207.0 L 807.0 207.9 L 804.7 208.5 L 798.8 212.3 L 798.1 212.7 L 794.5 215.4 L 792.4 217.9 L 791.8 219.7 L 791.6 222.7 L 792.0 224.3 L 793.0 226.1 L 793.9 229.8 L 794.6 235.9 L 796.4 245.0 L 797.9 248.2 L 799.4 250.4 L 800.3 251.2 L 800.5 251.4 L 802.1 252.2 L 805.6 253.1 L 812.4 253.5 L 824.0 251.9 L 835.5 251.7 L 838.7 252.2 L 846.9 252.7 L 850.6 252.4 L 855.4 251.1 L 857.9 249.7 L 861.4 247.2 L 863.1 245.3 L 863.6 244.4 L 864.6 242.6 L 865.1 240.5 L 864.8 238.9 L 865.4 238.1 L 865.5 235.7 L 865.2 232.6 L 864.4 229.6 L 862.9 226.8 L 861.1 224.2 L 856.3 218.1 L 853.1 214.8 L 850.0 212.1 L 843.9 207.3 L 836.5 202.4 L 833.1 200.8 L 831.3 200.3 L 827.4 199.7 L 825.0 199.8 z M 348.2 518.4 L 353.2 528.8 L 358.3 589.0 L 355.7 589.5 L 347.3 591.0 L 346.0 572.8 L 343.5 543.0 L 339.6 516.1 L 338.6 511.6 L 348.2 518.4 z M 256.3 402.2 L 289.0 423.1 L 309.9 438.7 L 322.4 435.4 L 333.6 439.8 L 344.9 453.9 L 353.3 483.3 L 360.1 502.5 L 373.8 533.1 L 379.1 583.4 L 370.3 586.8 L 358.3 589.0 L 353.2 528.8 L 348.2 518.4 L 338.6 511.6 L 331.6 506.7 L 327.9 493.4 L 329.1 473.8 L 319.4 466.5 L 311.5 469.5 L 298.9 477.5 L 293.5 478.0 L 288.4 472.1 L 257.5 433.6 L 260.8 432.1 L 262.7 431.5 L 266.0 428.8 L 267.8 425.9 L 268.0 424.5 L 267.8 423.2 L 266.0 420.7 L 260.7 415.9 L 250.3 408.0 L 244.4 401.3 L 239.6 395.2 L 237.7 391.4 L 236.8 386.7 L 236.9 381.5 L 237.0 380.9 L 256.3 402.2 z M 52.1 541.4 L 59.2 548.1 L 80.6 568.1 L 80.6 568.4 L 81.0 575.4 L 75.0 577.0 L 66.9 570.6 L 23.2 537.7 L 19.5 531.0 L 20.1 523.8 L 27.8 523.3 L 52.1 541.4 z M 248.6 381.1 L 264.7 398.6 L 312.9 429.5 L 322.3 428.4 L 340.1 434.4 L 354.8 454.3 L 361.1 482.2 L 368.4 502.1 L 381.0 531.5 L 386.4 582.6 L 379.1 583.4 L 373.8 533.1 L 360.1 502.5 L 353.3 483.3 L 344.9 453.9 L 333.6 439.8 L 322.4 435.4 L 309.9 438.7 L 289.0 423.1 L 256.3 402.2 L 237.0 380.9 L 243.0 379.7 L 248.6 381.1 z M 74.5 527.5 L 78.5 528.5 L 84.5 530.9 L 89.0 533.8 L 89.4 534.0 L 94.0 537.9 L 99.1 543.1 L 101.0 545.5 L 103.7 549.2 L 105.8 553.0 L 107.1 557.2 L 107.6 558.7 L 108.0 561.0 L 108.1 564.6 L 107.9 566.9 L 106.9 570.1 L 105.0 571.9 L 103.8 572.3 L 100.2 572.7 L 97.3 572.4 L 95.3 572.1 L 91.6 571.4 L 80.6 568.4 L 80.6 568.1 L 59.2 548.1 L 58.2 546.2 L 57.1 539.5 L 57.3 535.1 L 58.2 531.6 L 58.7 530.9 L 61.3 527.8 L 62.5 527.1 L 67.4 526.5 L 74.5 527.5 z M 616.5 17.3 L 629.2 25.5 L 652.0 40.1 L 656.8 44.4 L 662.3 50.1 L 666.1 54.6 L 670.6 61.3 L 672.7 65.4 L 672.9 67.4 L 672.5 69.9 L 672.3 70.6 L 627.3 46.5 L 622.2 46.7 L 619.1 49.9 L 622.0 61.1 L 631.9 80.3 L 645.4 114.5 L 646.0 118.6 L 647.2 124.0 L 649.1 130.1 L 650.4 132.7 L 653.1 142.0 L 653.1 142.0 L 661.4 176.2 L 666.8 187.8 L 667.5 191.7 L 669.5 199.5 L 671.4 205.4 L 676.5 216.1 L 676.6 217.0 L 679.6 223.4 L 682.8 228.2 L 686.7 233.0 L 691.7 238.2 L 698.2 243.9 L 710.8 254.6 L 716.3 258.9 L 718.6 260.2 L 724.0 262.5 L 727.1 263.7 L 729.3 264.4 L 731.7 265.1 L 733.1 265.3 L 734.1 265.6 L 735.9 266.2 L 737.4 266.7 L 738.9 266.9 L 741.1 267.1 L 742.9 267.0 L 745.0 266.9 L 747.5 267.0 L 748.9 267.2 L 750.5 267.8 L 752.3 268.0 L 757.3 268.3 L 762.8 268.3 L 771.1 274.7 L 776.5 278.0 L 774.5 279.0 L 771.9 279.5 L 763.4 279.2 L 759.7 278.5 L 758.5 278.2 L 756.9 278.2 L 755.7 278.3 L 754.9 278.5 L 754.1 278.4 L 752.7 278.2 L 749.9 277.7 L 747.3 277.5 L 744.8 277.6 L 741.5 277.2 L 738.5 276.7 L 735.1 275.9 L 733.1 275.4 L 729.5 274.3 L 726.7 273.4 L 722.8 272.1 L 719.5 270.6 L 714.2 268.5 L 709.5 265.6 L 706.2 263.2 L 694.6 253.0 L 680.7 239.5 L 677.6 235.7 L 671.3 227.7 L 667.4 221.9 L 661.9 212.5 L 651.9 194.2 L 645.4 179.8 L 643.0 172.9 L 641.2 169.3 L 640.3 166.4 L 637.7 160.3 L 636.7 158.2 L 635.1 154.0 L 626.7 127.5 L 589.0 33.8 L 588.0 26.9 L 592.9 16.8 L 603.4 13.2 L 616.5 17.3 z M 185.7 266.6 L 187.8 268.9 L 195.2 279.7 L 197.9 284.5 L 200.2 289.6 L 201.1 291.0 L 210.4 328.7 L 221.8 357.4 L 220.1 356.7 L 218.3 356.5 L 217.6 356.8 L 216.0 358.5 L 214.8 364.2 L 215.0 367.1 L 214.7 370.8 L 214.8 371.6 L 203.5 357.1 L 190.1 322.2 L 183.7 282.6 L 184.1 265.2 L 185.7 266.6 z M 1024.9 336.3 L 1031.2 338.3 L 1034.5 339.6 L 1041.5 343.1 L 1044.3 345.0 L 1049.0 349.4 L 1052.9 353.5 L 1060.4 362.8 L 1063.6 367.6 L 1065.9 371.8 L 1070.2 381.7 L 1072.1 385.7 L 1073.8 388.8 L 1066.9 384.6 L 1012.8 344.2 L 1006.6 337.0 L 1009.6 336.5 L 1017.6 335.9 L 1020.7 335.8 L 1024.9 336.3 z M 386.0 10.2 L 385.7 19.7 L 387.3 27.2 L 392.1 38.9 L 398.2 55.6 L 405.3 69.7 L 414.5 88.9 L 424.4 105.5 L 432.5 114.4 L 441.1 121.0 L 444.7 123.3 L 448.8 126.7 L 457.0 132.5 L 463.5 136.7 L 464.5 137.0 L 466.4 137.2 L 470.1 136.5 L 472.4 134.8 L 477.1 157.6 L 487.9 183.5 L 498.1 192.9 L 511.8 183.0 L 510.7 188.4 L 516.5 199.6 L 516.6 213.6 L 507.5 216.6 L 496.0 210.8 L 468.6 189.0 L 435.6 161.7 L 412.3 129.9 L 375.9 64.1 L 360.2 34.4 L 358.0 22.2 L 356.3 19.1 L 353.8 14.4 L 351.9 13.5 L 350.1 12.7 L 356.2 10.0 L 386.0 10.0 L 386.0 10.2 z M 328.9 17.7 L 324.4 59.2 L 329.4 94.7 L 362.4 160.6 L 376.9 181.2 L 396.3 208.2 L 415.8 236.5 L 441.7 265.7 L 475.6 297.7 L 475.3 297.8 L 471.5 297.8 L 468.4 297.3 L 464.7 295.8 L 462.2 294.0 L 459.4 291.2 L 457.4 288.7 L 456.0 285.9 L 454.5 284.3 L 452.5 284.3 L 449.1 279.9 L 437.5 267.9 L 434.4 265.0 L 421.7 254.0 L 420.2 252.4 L 395.2 226.0 L 360.3 172.6 L 350.8 156.2 L 339.0 136.8 L 333.9 126.9 L 331.5 121.5 L 325.7 105.3 L 322.2 97.2 L 320.8 92.3 L 318.7 83.0 L 317.8 76.3 L 317.1 67.9 L 316.9 58.5 L 317.2 54.4 L 318.4 45.1 L 321.8 26.8 L 324.7 15.1 L 325.7 10.0 L 330.9 10.0 L 328.9 17.7 z M 256.0 120.2 L 262.7 124.6 L 265.6 130.7 L 268.5 135.8 L 263.6 143.0 L 258.9 143.1 L 252.1 141.7 L 240.0 133.9 L 247.2 114.9 L 256.0 120.2 z M 763.4 49.1 L 790.7 73.5 L 803.7 101.6 L 815.2 110.4 L 813.2 110.7 L 810.4 112.1 L 806.7 114.8 L 806.3 115.6 L 804.1 117.6 L 804.1 118.2 L 802.8 119.5 L 800.5 121.2 L 799.2 122.5 L 796.3 123.7 L 793.0 123.8 L 786.9 124.7 L 782.3 125.9 L 779.4 129.3 L 779.4 131.4 L 779.9 133.4 L 781.0 135.3 L 781.1 136.7 L 782.2 138.4 L 783.6 142.7 L 785.4 146.9 L 785.0 152.0 L 784.9 152.2 L 761.2 126.7 L 728.5 96.0 L 719.4 89.2 L 721.2 88.0 L 726.3 84.2 L 727.4 82.9 L 729.0 80.3 L 730.2 76.2 L 732.1 70.7 L 734.1 66.7 L 736.9 63.9 L 744.2 60.0 L 749.8 56.0 L 751.2 54.2 L 752.9 50.3 L 753.3 48.9 L 753.5 46.2 L 753.6 43.5 L 763.4 49.1 z M 350.1 12.7 L 349.1 13.2 L 345.7 19.3 L 340.1 22.2 L 339.7 16.0 L 341.3 10.0 L 356.2 10.0 L 350.1 12.7 z"
 style="fill:#9c0000; fill-opacity:0.1; fill-rule:evenodd; stroke:#ffa07a; stroke-opacity:1.0; stroke-width:0.8;"/>

<g stroke="black" stroke-width="3" fill="black">
  <circle cx="10" cy="10" r="0.1"/>
  <circle cx="1210" cy="10" r="0.1"/>
  <circle cx="1210" cy="754" r="0.1"/>
  <circle cx="10" cy="754" r="0.1"/>
  <circle cx="10" cy="10" r="0.1"/>
</g>
</g>
</g>
</svg>
